<svg xmlns="http://www.w3.org/2000/svg" viewBox="0 0 145.51 160.66"><defs><style>.cls-1{fill:#062331;}</style></defs><g id="Layer_2" data-name="Layer 2"><g id="Layer_1-2" data-name="Layer 1"><path class="cls-1" d="M62.37,1c-20.3,6.8-31.9,27.8-26,47.2a27.68,27.68,0,0,1,1.2,5.1,51.23,51.23,0,0,1-7.6,1.8c-17.4,3.6-29,17.2-29.9,35.2S9,123,25.87,128.66c16.7,5.6,35.3-1.9,44.3-17.8l2.4-4.3,3.1,5.4a39.63,39.63,0,0,0,17.2,15.6c4.7,2.2,6.8,2.6,15,2.6s10.2-.4,15.1-2.8c15.9-7.7,24.9-24.4,22-40.9-2.9-16.8-15-28.9-31.8-31.9l-6.1-1.1,1.5-4.5c2.4-7,1.4-20.3-2.1-27.5A37.19,37.19,0,0,0,74.07.06C69.27-.14,64.87.16,62.37,1Zm18.1,19.6a19.79,19.79,0,0,1,10.4,12.9c3.5,13.5-9.6,26.8-22.9,23.2a19.41,19.41,0,0,1-14.1-18.6C53.87,23.86,67.67,14.76,80.47,20.56Zm-34.2,55c8.7,4.9,12.1,16.3,7.6,25.6-3.3,6.8-8.6,10-16.6,10-5.3,0-6.8-.4-10.5-3a18.68,18.68,0,0,1-8.2-15.9c0-5.8,1.7-9.8,6.1-13.9A18.48,18.48,0,0,1,46.27,75.56Zm70.5-.1A19.53,19.53,0,0,1,123,81a19.22,19.22,0,0,1-7.6,28.8c-15.9,7.3-32.1-9.9-24.4-25.8C95.77,74.16,106.47,70.56,116.77,75.46Z" transform="translate(0 0)"/><path class="cls-1" d="M44.77,144.56c-2.1,2.2-2.9,3.9-2.9,6.6s.8,4.4,2.9,6.6l2.9,2.9h48.4l2.9-2.9c2.1-2.2,2.9-3.9,2.9-6.6s-.8-4.4-2.9-6.6l-2.9-2.9H47.67Z" transform="translate(0 0)"/></g></g></svg>