<svg xmlns="http://www.w3.org/2000/svg" viewBox="0 0 137.28 135.5"><defs><style>.cls-1{fill:#d11f3d;}</style></defs><g id="Layer_2" data-name="Layer 2"><g id="Layer_1-2" data-name="Layer 1"><path class="cls-1" d="M65.87.68C62.07,2,2,61.18.47,65a9.81,9.81,0,0,0-.3,4.8c.5,2.2,55.8,58.1,62.6,63.5,2.9,2.3,7.4,2.9,10,1.4,3.5-2.1,62.8-61.1,63.9-63.6a10.35,10.35,0,0,0,.4-5.5c-.7-3.1-61.1-63.1-65.3-64.9C69.77-.23,68.27-.23,65.87.68ZM92,45.18l22.5,22.4-3.3,3.6c-1.8,2-12.2,12.4-23,23.1l-19.6,19.5-23-23-23-23,22.7-22.7c12.6-12.6,23.1-22.7,23.5-22.6S79.67,32.88,92,45.18Z" transform="translate(0)"/></g></g></svg>