<svg xmlns="http://www.w3.org/2000/svg" viewBox="0 0 144.41 131.04"><defs><style>.cls-1{fill:#d11f3d;}</style></defs><g id="Layer_2" data-name="Layer 2"><g id="Layer_1-2" data-name="Layer 1"><path class="cls-1" d="M30.5,1.35A43.17,43.17,0,0,0,3.1,24.85C.2,31,0,32.05,0,43c0,11.3.1,11.6,3.7,19,3.4,6.6,6.9,10.6,34,38.2,32.8,33.3,32.7,33.2,38.8,28.9,1.4-.9,15.3-14.7,31-30.7,29.6-30.1,32.7-34,35.6-44.9,4.9-18.3-4.4-39.9-21-48.3S89.4-1.35,73,11.25c-.7.5-3-.5-6.3-2.9a60.26,60.26,0,0,0-10.5-5.7C49.3,0,37.6-.55,30.5,1.35Zm20.6,19.4c2.2,1,7,4.6,10.6,8,5.6,5.2,7.1,6.1,10.2,6.1s4.7-.9,11-6.9c7.9-7.5,11.5-9.1,20.1-9.1,12.7.1,22.8,10.7,22.8,24,0,9.9-2.1,13-25.5,36.6-11.7,11.8-21.5,21.8-21.8,22.2s-2,2-3.8,3.6l-3.2,3L46.7,83c-13.6-14-25.5-26.9-26.5-28.8-2.8-5.3-3.3-13.1-1.2-19.3,2-6,8.6-13.1,13.8-14.8S46.6,18.75,51.1,20.75Z"/></g></g></svg>