<svg xmlns="http://www.w3.org/2000/svg" viewBox="0 0 145.41 157"><defs><style>.cls-1{fill:#062331;}</style></defs><g id="Layer_2" data-name="Layer 2"><g id="Layer_1-2" data-name="Layer 1"><path class="cls-1" d="M68.6,1C66.8,2.1,13.4,55.8,9.5,60.5,2.2,69.4-1.4,83.2.5,94.6,6,126.3,41.1,141.3,67.1,123l5.7-4,4.3,3.3c8.3,6.4,14,8.1,25.8,8.2,10.2,0,10.8-.1,18.1-3.8,22-10.8,30.6-36.4,19.7-58.7-2.8-5.6-7.4-10.7-33.8-37.3C80.1,3.8,75.9,0,73.3,0A12.15,12.15,0,0,0,68.6,1ZM96.8,47.5c15.1,15,25.4,26.2,26.9,28.9,4.9,9.4,3.7,19.4-3.2,27.3-10.1,11.4-23.4,11.3-35.7-.4-10.8-10.1-13.1-10.2-23-.8-7.9,7.5-13.6,9.9-21.4,9.3-12-1-20.8-10.4-21.4-22.7-.5-10.4,1-12.6,28.8-41C61.3,34.3,72.3,23,72.3,23S83.4,34,96.8,47.5Z" transform="translate(0)"/><path class="cls-1" d="M46.7,140.9c-2.1,2.2-2.9,3.9-2.9,6.6s.8,4.4,2.9,6.6l2.9,2.9h23c21.5,0,23.1-.1,25.5-2a9.64,9.64,0,0,0,2.7-11.1c-2.3-5.4-4.6-5.9-29-5.9H49.6Z" transform="translate(0)"/></g></g></svg>