<?xml version="1.0"?>
<svg xmlns="http://www.w3.org/2000/svg" viewBox="0 0 512 512" width="512" height="512"><g id="Outline"><path d="M16,164a36.04,36.04,0,0,0,36,36h6.29A90.588,90.588,0,0,0,40,254.6v55.184l-22.86,38.1a8,8,0,0,0-.985,5.685l16,80A8,8,0,0,0,40,440h64a8,8,0,0,0,8-8V416a24.027,24.027,0,0,0-24-24H78.559l-5.3-26.471A163.913,163.913,0,0,0,104,351.7V360a8.007,8.007,0,0,0,.689,3.249l32,72A8,8,0,0,0,144,440h64a8,8,0,0,0,8-8V416a24.027,24.027,0,0,0-24-24H181.766L169,353.7l33.63-40.361,35.94,6.535A7.983,7.983,0,0,0,240,320h17.441l22.714,113.569A8,8,0,0,0,288,440H392a8,8,0,0,0,8-8V416a24.027,24.027,0,0,0-24-24h-8V338.329l50.917-80.011a8,8,0,0,1,5.44-3.6l30.6-5.109A23.954,23.954,0,0,0,474.3,231.763l5.329-21.3,15.8-39.494A8,8,0,0,0,492.8,161.6l-30.9-23.178-14.963-22.444L440,102.113A39.783,39.783,0,0,0,404.22,80H344.89a71.806,71.806,0,0,0-48.646,18.923L220.888,168H176.4l-36.661-3.67A91,91,0,0,0,73.769,184H52a20,20,0,0,1,0-40H161.373a62.269,62.269,0,0,0,30.648-8A56.063,56.063,0,0,0,248,80a8,8,0,0,0-8-8,56.076,56.076,0,0,0-55.67,49.965A46.347,46.347,0,0,1,161.373,128H52A36.04,36.04,0,0,0,16,164ZM153.854,346.879a8,8,0,0,0-1.443,7.651l16,48A8,8,0,0,0,176,408h16a8.009,8.009,0,0,1,8,8v8H149.2L120,358.3V341.137A163.89,163.89,0,0,0,155.651,304.8l28.892,5.253ZM273.758,320h23.683l20.8,104H294.559ZM376,408a8.009,8.009,0,0,1,8,8v8H334.559L311.845,310.431a8.037,8.037,0,0,0-.485-1.553L352,339.954V400a8,8,0,0,0,8,8Zm11.917-251.595,6.653,2.218.787,1.377H370.639A46.138,46.138,0,0,0,334.3,177.9l-62.166,80.815a105.827,105.827,0,0,1-28.635-34.891L326.2,141.112A44.47,44.47,0,0,1,357.857,128h13.915A24.557,24.557,0,0,0,387.917,156.405Zm-40.94,31.246A30.038,30.038,0,0,1,370.639,176H404.5l13.715,24H398.234a34.528,34.528,0,0,0-28.786,15.405L317.454,293.4l-32.628-24.95Zm111.8,40.235a7.971,7.971,0,0,1-6.444,5.943l-30.6,5.109a24.018,24.018,0,0,0-16.316,10.787l-47.488,74.624-27.741-21.213,52.57-78.856A18.561,18.561,0,0,1,398.234,216h63.517ZM451.2,150.4l27.1,20.322L466.583,200h-29.94l-29.7-51.969a8.006,8.006,0,0,0-4.416-3.621l-9.554-3.184a8.481,8.481,0,0,1-5.521-10.058,8.442,8.442,0,0,1,10.861-5.963l7.154,2.385A8.027,8.027,0,0,0,408,128h27.719l13.625,20.438A8.032,8.032,0,0,0,451.2,150.4ZM307.057,110.717A55.843,55.843,0,0,1,344.89,96h59.33a23.869,23.869,0,0,1,21.466,13.271L427.051,112H409.3l-5.922-1.975a24.524,24.524,0,0,0-19.492,1.762c-.123.068-.242.143-.364.213H357.857a60.369,60.369,0,0,0-42.969,17.8l-77.983,77.983a104.384,104.384,0,0,1-4.849-28.313ZM138.143,180.25l37.06,3.71c.265.026.531.04.8.04h40.269a120.391,120.391,0,0,0,10.255,41.431c.017.036.046.1.062.137.06.137.121.271.183.4.541,1.209,1.128,2.449,1.788,3.781a121.867,121.867,0,0,0,35.061,42.621l41.468,31.708A7.966,7.966,0,0,0,304,304H240.722l-76.515-13.912c4.531-8.916,9.3-20.593,11.731-40.1l-15.876-1.982c-2.64,21.148-7.947,30.943-13.078,40.415-.626,1.156-1.236,2.289-1.835,3.423a148.158,148.158,0,0,1-37.77,38.721,148.2,148.2,0,0,1-45.034,21.585l-.53.151a8,8,0,0,0-5.66,9.265l8,40A8,8,0,0,0,72,408H88a8.009,8.009,0,0,1,8,8v8H46.559L32.451,353.464,54.86,316.116A8,8,0,0,0,56,312V254.6a74.766,74.766,0,0,1,17.991-48.632A72.593,72.593,0,0,1,79.716,200H80v-.26c.622-.572,1.251-1.138,1.892-1.688A74.95,74.95,0,0,1,138.143,180.25Zm92.83-91.223a40.134,40.134,0,0,1-29.946,29.946A40.134,40.134,0,0,1,230.973,89.027Z"/></g></svg>
