<svg id="Layer_1" height="512" viewBox="0 0 512 512" width="512" xmlns="http://www.w3.org/2000/svg" data-name="Layer 1"><path d="m13.391 189.887q.731.57 1.514 1.063c-.7 4.839-.267 10.97 3.582 16.005 4.57 5.979 12.654 8.988 24.1 8.987 1.155 0 2.356-.041 3.579-.1.026.3.043.59.072.888 1.315 13.474 5.991 25.648 12.952 34-2.632 17.059 1.246 33.836 11.688 49.723a85.46 85.46 0 0 0 22.66 22.866c6.24 4.371 12.871 10.952 12.553 33.842a6 6 0 0 0 11.2 3.069c.589-1.028 1.141-2.028 1.671-3.013l5.308 47.809a44.341 44.341 0 0 0 -29.148 21.23 11.09 11.09 0 0 0 -.028 11.073 10.847 10.847 0 0 0 9.5 5.486h41.513a13.208 13.208 0 0 0 12.65-9.547l.018-.063h19.388a15.809 15.809 0 0 0 15.416-19.313l-3.1-13.663a3.848 3.848 0 0 1 .178-2.258 418.269 418.269 0 0 0 19.378-63.914c18.208-3.515 43.971-6.077 71.663-1.251 1.618 9.567 5.088 18.336 11.23 25.325.067.076.136.15.206.223l38.913 40.01-17.968 7.569a33.046 33.046 0 0 0 -19.157 21.852l-.7 2.569a9.857 9.857 0 0 0 9.507 12.461h35.709a12.29 12.29 0 0 0 9.647-4.726l26.536-34.2a19.336 19.336 0 0 0 -1.038-24.922c-5.068-5.561-7.221-9.988-10.13-17.809a26.078 26.078 0 0 1 4.144-25.312c.64-.8 1.258-1.591 1.872-2.386 7.256 12.887 24.32 34.666 59.592 43.081a4.762 4.762 0 0 1 2.57 1.569l.214.255c4.59 5.48 15.34 18.313 12.531 29.616a1.9 1.9 0 0 1 -1.58 1.331l-11.625 1.835a15.754 15.754 0 0 0 -9.957 5.84l-8.415 10.7a8.14 8.14 0 0 0 6.072 13.165l48.915 1.962h.243a6 6 0 0 0 5.735-4.242l11.536-37.655a27.773 27.773 0 0 0 -4.082-24.365l-9.493-13.039a172.821 172.821 0 0 1 -28.042-61.168 173.177 173.177 0 0 0 -10.838-30.87c19.579 2.7 42.184-.261 58.587-20.625 15.553-19.31 15.874-36.278 13.4-47.111-4.428-19.421-20.423-33.181-32.775-39.063a14.994 14.994 0 0 0 -5.332-1.418c-6.173-5.456-26.047-20.871-46.415-13.624a63.19 63.19 0 0 0 -16.78 8.906c-5.228 3.7-7.391 5.227-19.405 2.638a6 6 0 0 0 -7.012 7.587c2.47 8.25 13.782 22.869 38.911 19.159a119.457 119.457 0 0 1 38.259.658 15.391 15.391 0 0 0 2.59 2.3c8.278 5.787 17.831 14.763 16.333 24.665-1.448 9.567-12.485 17.173-22.781 20.468-10.393 3.325-20.243 2.6-24.51-1.8-14.947-15.431-30.985-19.224-39.215-20.115a9.059 9.059 0 0 1 -6.047-3.289c-17.864-21.732-42.957-29.9-72.561-23.608-15.852 3.366-30.338 4.836-43.05 4.384a58.159 58.159 0 0 1 -53.794-41.978c-14.758-50.646-52.861-63.883-55.375-64.709-11.558-4.286-21.788-5.118-30.015-5.785-6.177-.5-11.512-.933-14.932-2.713a61.863 61.863 0 0 0 -33.971-6.993c-12.5 1.1-21.545 5.893-26.88 14.254-7.586 11.887-4.952 27.44-3.074 34.71a39.944 39.944 0 0 0 -5.612 6.875 47.369 47.369 0 0 0 -4.465 9.07c-1.024 2.682-5.964 12.221-26.424 22.342a11.606 11.606 0 0 0 -6.469 10.046c-.126 4.023-.515 16.263 8.36 23.181zm440.4-19.708a15.208 15.208 0 0 0 -2.211 5.645 132.208 132.208 0 0 0 -36.311.229c-7.817 1.154-13.335.069-17.2-1.793 5.546-.641 9.126-2.908 13.389-5.923a51.232 51.232 0 0 1 13.873-7.4c10.982-3.9 22.782 2.545 29.728 7.567a15.174 15.174 0 0 0 -1.267 1.675zm-274.314 223.429a15.8 15.8 0 0 0 -.7 9.276l3.106 13.663a3.809 3.809 0 0 1 -3.715 4.653h-15.968l13.187-46.259a107.565 107.565 0 0 1 4.266-12.245 108.59 108.59 0 0 0 6.871-22.642c2.351-.776 5.953-1.886 10.564-3.082a420.681 420.681 0 0 1 -17.611 56.636zm283.544-23.031 9.493 13.039a15.714 15.714 0 0 1 2.31 13.785l-10.181 33.228-36.743-1.474 3.743-4.759a3.787 3.787 0 0 1 2.395-1.4l11.626-1.836a13.845 13.845 0 0 0 11.355-10.291c4.279-17.224-9.216-33.335-14.979-40.214l-.213-.254a16.666 16.666 0 0 0 -8.985-5.537c-37.241-8.885-51.045-34.41-54.574-42.552 16.43-25.955 20.089-49.99 20.888-60.134a.77.77 0 0 1 .4-.643.821.821 0 0 1 .8-.042 134.52 134.52 0 0 0 18.494 6.794 161.812 161.812 0 0 1 14.172 36.906 184.758 184.758 0 0 0 29.999 65.384zm-262.292-217.606a70.136 70.136 0 0 0 64.884 50.612c13.695.5 29.161-1.068 45.972-4.638 25.3-5.374 45.752 1.185 60.8 19.49a20.987 20.987 0 0 0 14.029 7.6c6.618.714 19.562 3.811 31.884 16.529 7.6 7.841 21.692 9.711 36.785 4.881 16.875-5.4 29.039-17.215 30.988-30.1 1.336-8.824-1.279-22.285-21.322-36.3a3.2 3.2 0 0 1 3.149-5.537c10.716 5.1 22.984 16.636 26.235 30.9 2.735 12-.983 24.417-11.05 36.916-21.8 27.068-58.087 16.153-77.776 7.236a12.845 12.845 0 0 0 -18.113 10.674c-.849 10.781-5.273 38.9-27.95 67.083a38.132 38.132 0 0 0 -6.041 37.017c3.328 8.947 6.176 14.761 12.507 21.709a7.358 7.358 0 0 1 .426 9.483l-26.536 34.204a.212.212 0 0 1 -.165.08h-32.9a21.116 21.116 0 0 1 12.2-13.824l20.777-8.751a9.919 9.919 0 0 0 3.26-16.058l-40.925-42.077c-12.716-14.618-10.118-41.242-5.691-61.028a243.007 243.007 0 0 1 13.645-41.63 6 6 0 0 0 -10.929-4.954c-1.066 2.349-19.026 42.563-18.286 77.967-40.739-6.4-76.494 1.765-92.595 6.546.881-22.378-7.142-36.045-7.636-36.862a6 6 0 0 0 -10.286 6.181c.585.992 14.143 24.718-1.47 61.715a119.267 119.267 0 0 0 -4.751 13.62l-16.626 58.322a1.16 1.16 0 0 1 -1.11.837h-39.712a32.576 32.576 0 0 1 21.119-14.21 10.93 10.93 0 0 0 8.78-11.987l-8.2-73.87a102.138 102.138 0 0 0 .715-11.519c.293-13.342.525-23.88 30.087-52.691a31.749 31.749 0 0 0 4.194-4.907 40.667 40.667 0 0 0 5.745-12.83c25.281-25.227 27.065-70.545 20.154-104.979a165.635 165.635 0 0 0 -7.983-27.436c7.583 8.542 14.995 20.379 19.718 36.586zm-183.709 14.348c22.689-11.272 29.858-22.819 32.111-28.708a35.87 35.87 0 0 1 3.317-6.815c8.058-12.385 19.515-10.933 20.108-10.85a6 6 0 0 0 1.944-11.846 31.379 31.379 0 0 0 -15.772 2.188c-1.093-6.069-1.6-14.823 2.483-21.2 3.275-5.108 9.1-7.962 17.8-8.726a49.907 49.907 0 0 1 27.379 5.682c5.573 2.9 12.029 3.425 19.5 4.031 7.919.642 16.894 1.369 26.96 5.128 7.521 2.809 18.623 21.277 24.382 49.971 5.259 26.2 5.27 59.064-7.655 81.918a76.488 76.488 0 0 0 -8-23.811 6 6 0 0 0 -10.449 5.9c.146.261 14.5 26.32 2.034 44.706a20.159 20.159 0 0 1 -2.636 3.047c-33.077 32.236-33.384 46.218-33.71 61.021a69.716 69.716 0 0 1 -1.5 15 36.466 36.466 0 0 0 -14.895-20.471 73.52 73.52 0 0 1 -19.517-19.628c-9.152-13.924-12.321-28.381-9.535-43.227a5.972 5.972 0 0 0 .212-1.089q3.159-15.26 14.684-31.016a6 6 0 0 0 -9.679-7.094 102.176 102.176 0 0 0 -13.173 23.642c-7.208-15.252-7.354-37.163-.556-45.991a27.756 27.756 0 0 1 9.12-7.278c28.411-15.1 32.972-37.616 33.163-49.7a32.3 32.3 0 0 1 1.93-10.075 19.124 19.124 0 0 0 -.635-15.264c-4.061-8-12.981-10.906-13.985-11.212a6 6 0 0 0 -3.494 11.481c1.039.315 5.232 2.118 6.779 5.164.82 1.615.822 3.538 0 5.879a44.232 44.232 0 0 0 -2.6 13.839c-.135 9.439-3.818 27.085-26.786 39.293a39.55 39.55 0 0 0 -13 10.553c-4.026 5.229-6.54 13.051-7.262 22.081-12.174.745-16.513-2.17-18.04-4.137a8.14 8.14 0 0 1 -1.411-5.432c.412.016.818.041 1.24.041a50.664 50.664 0 0 0 13.774-2.174 6 6 0 0 0 -3.3-11.538c-8.311 2.374-14.392 2.311-17.586-.179-2.699-2.108-3.927-6.396-3.744-13.104z"/></svg>