<svg xmlns="http://www.w3.org/2000/svg" viewBox="0 0 512 511.98"><defs><style>.cls-1{fill:#848689;}</style></defs><g id="Layer_2" data-name="Layer 2"><g id="_1_5" data-name="1,5"><path class="cls-1" d="M474.67,512H357.33A37.37,37.37,0,0,1,320,474.65V400a37.38,37.38,0,0,1,37.33-37.33H474.67A37.38,37.38,0,0,1,512,400v74.67A37.37,37.37,0,0,1,474.67,512ZM357.33,394.65A5.33,5.33,0,0,0,352,400v74.67a5.33,5.33,0,0,0,5.33,5.33H474.67a5.33,5.33,0,0,0,5.33-5.33V400a5.33,5.33,0,0,0-5.33-5.33Z"/><path class="cls-1" d="M453.33,394.65H378.67a16,16,0,0,1-16-16v-48a53.33,53.33,0,0,1,106.66,0v48A16,16,0,0,1,453.33,394.65Zm-58.66-32h42.66v-32a21.33,21.33,0,0,0-42.66,0Z"/><path class="cls-1" d="M181.33,448a14.94,14.94,0,0,1-3.05-.29C176.49,447.34,0,410.89,0,211.82V80A16,16,0,0,1,10.22,65.07l165.33-64a16.06,16.06,0,0,1,11.54,0l165.34,64A16,16,0,0,1,362.67,80V211.82a281.18,281.18,0,0,1-2.05,34.78,16,16,0,1,1-31.75-3.86,252.32,252.32,0,0,0,1.8-30.94V91L181.33,33.16,32,91V211.82C32,373,158.89,410.27,181.23,415.58c9.49-2.37,40.21-11.37,71-34.22a16,16,0,0,1,19.1,25.69c-43,31.89-85.17,40.29-86.94,40.61a12.84,12.84,0,0,1-3,.32Z"/></g></g></svg>