<?xml version="1.0" encoding="utf-8"?>
<!-- Generator: Adobe Illustrator 24.3.0, SVG Export Plug-In . SVG Version: 6.00 Build 0)  -->
<svg version="1.1" id="_x31__x2C_5" xmlns="http://www.w3.org/2000/svg" xmlns:xlink="http://www.w3.org/1999/xlink" x="0px"
	 y="0px" viewBox="0 0 512 512" style="enable-background:new 0 0 512 512;" xml:space="preserve">
<style type="text/css">
	.st0{fill:#848689;}
</style>
<path class="st0" d="M474.7,512H357.3c-20.6,0-37.3-16.7-37.3-37.3V400c0-20.6,16.7-37.3,37.3-37.3h117.3
	c20.6,0,37.3,16.7,37.3,37.3v74.7C512,495.3,495.3,512,474.7,512z M357.3,394.7c-2.9,0-5.3,2.4-5.3,5.3v74.7c0,2.9,2.4,5.3,5.3,5.3
	h117.3c2.9,0,5.3-2.4,5.3-5.3V400c0-2.9-2.4-5.3-5.3-5.3H357.3z"/>
<path class="st0" d="M453.3,394.7h-74.7c-8.8,0-16-7.2-16-16v-48c0-29.4,23.9-53.3,53.3-53.3c29.4,0,53.3,23.9,53.3,53.3v48
	C469.3,387.5,462.2,394.7,453.3,394.7z M394.7,362.7h42.7v-32c0-11.8-9.6-21.3-21.3-21.3s-21.3,9.6-21.3,21.3V362.7z"/>
<path class="st0" d="M181.3,448c-1,0-2-0.1-3.1-0.3C176.5,447.4,0,410.9,0,211.8V80c0-6.6,4.1-12.5,10.2-14.9l165.3-64
	c3.7-1.4,7.8-1.4,11.5,0l165.3,64c6.2,2.4,10.2,8.3,10.2,14.9v131.8c0,12.1-0.7,23.5-2,34.8c-1.1,8.8-8.9,14.9-17.8,14
	c-8.8-1.1-15-9-13.9-17.8c1.2-10,1.8-20.1,1.8-30.9V91L181.3,33.2L32,91v120.9C32,373,158.9,410.3,181.2,415.6
	c9.5-2.4,40.2-11.4,71-34.2c7.1-5.3,17.1-3.8,22.4,3.3c5.2,7.1,3.8,17.1-3.3,22.4c-43,31.9-85.2,40.3-86.9,40.6
	C183.4,447.9,182.4,448,181.3,448L181.3,448z"/>
</svg>
