<?xml version="1.0" encoding="iso-8859-1"?>
<!-- Generator: Adobe Illustrator 19.0.0, SVG Export Plug-In . SVG Version: 6.00 Build 0)  -->
<svg version="1.1" id="Layer_1" xmlns="http://www.w3.org/2000/svg" xmlns:xlink="http://www.w3.org/1999/xlink" x="0px" y="0px"
	 viewBox="0 0 512.001 512.001" style="enable-background:new 0 0 512.001 512.001;" xml:space="preserve">
<path style="fill:#E4EAF8;" d="M356.607,332.665l-56.518-20.552l-80.161,16.032l-80.161-16.032L83.25,332.664
	c-19.008,6.912-31.66,24.976-31.66,45.202v70.521h336.677v-70.522C388.267,357.64,375.614,339.576,356.607,332.665z"/>
<rect x="163.811" y="247.98" style="fill:#E6AF78;" width="112.23" height="80.16"/>
<path style="fill:#D29B6E;" d="M163.816,282.147c16.758,8.865,35.835,13.934,56.113,13.934s39.355-5.069,56.113-13.934v-34.163
	H163.816V282.147z"/>
<path style="fill:#694B4B;" d="M300.09,7.5H195.878c-14.323,0-27.144,6.295-35.956,16.229c-24.738,1.987-44.204,22.651-44.204,47.9
	v30.213c0,6.554,0.804,13.084,2.394,19.443l3.229,12.916c1.59,6.359,2.394,12.888,2.394,19.443v14.18h192.387v-14.18
	c0-6.554,0.804-13.084,2.394-19.443l3.229-12.916c1.59-6.359,2.394-12.888,2.394-19.443V31.548
	C324.138,18.267,313.371,7.5,300.09,7.5z"/>
<path style="fill:#5A4146;" d="M195.88,167.823V87.661h-16.032c-17.709,0-32.065-14.356-32.065-32.065
	c0-12.25,4.618-23.395,12.158-31.887c-0.006,0.007-0.013,0.012-0.019,0.019c-24.738,1.987-44.204,22.651-44.204,47.9v30.213
	c0,6.554,0.804,13.083,2.393,19.442l3.229,12.916c1.59,6.359,2.393,12.888,2.393,19.442v14.18h72.147V167.823z"/>
<path style="fill:#D5DCED;" d="M61.707,348.545c-6.356,8.234-10.117,18.429-10.117,29.321v70.521h56.113v-29.81
	c0-11.78-4.323-23.15-12.149-31.954L61.707,348.545z"/>
<polygon style="fill:#B4E66E;" points="231.245,360.21 208.611,360.216 203.896,448.387 235.961,448.387 "/>
<path style="fill:#A0D755;" d="M203.896,336.161v24.048c0,4.427,3.589,8.016,8.016,8.016h16.032c4.427,0,8.016-3.589,8.016-8.016
	v-24.048H203.896z"/>
<g>
	<path style="fill:#D5DCED;" d="M162.4,292.19l57.528,35.955l-33.389,33.389c-3.503,3.503-9.312,3.022-12.191-1.009l-34.581-48.413
		l11.715-17.572C153.887,290.934,158.724,289.892,162.4,292.19z"/>
	<path style="fill:#D5DCED;" d="M277.457,292.19l-57.528,35.955l33.389,33.389c3.503,3.503,9.312,3.022,12.191-1.009l34.581-48.413
		l-11.715-17.572C285.97,290.934,281.133,289.892,277.457,292.19z"/>
</g>
<path style="fill:#F0C087;" d="M284.184,105.893c-37.406-24.417-95.243-22.394-121.962-19.833
	c-8.216,0.788-14.438,7.704-14.439,15.957v18.519c0,4.613-1.833,9.038-5.095,12.3l-13.859,13.859
	c-3.262,3.262-5.095,7.687-5.095,12.3v13.653c0,52.965,41.436,98.399,94.392,99.367c53.951,0.987,97.995-42.452,97.995-96.177
	v-16.843c0-4.613-1.833-9.038-5.095-12.3l-13.859-13.859c-3.262-3.262-5.095-7.687-5.095-12.3v-0.001
	C292.074,114.642,289.119,109.114,284.184,105.893z"/>
<path style="fill:#E6AF78;" d="M179.848,199.887v-73.304c0-8.709,6.899-15.84,15.606-16.033
	c25.019-0.554,65.231,0.534,96.698,10.773c-0.012-0.265-0.078-0.521-0.078-0.787v-0.001c0-5.882-2.938-11.408-7.862-14.625
	c-30.516-19.936-74.632-22.258-104.364-21.047c-6.712,0.273-12.704,0.725-17.626,1.196c-8.216,0.787-14.439,7.703-14.439,15.957
	v18.519c0,4.613-1.833,9.037-5.095,12.299l-13.858,13.858c-3.262,3.262-5.095,7.687-5.095,12.301v13.653
	c0,50.917,38.329,94.754,88.336,98.938C192.341,253.971,179.848,228.418,179.848,199.887z"/>
<path style="fill:#D5DCED;" d="M356.607,332.664l-39.156-14.238c-34.256,19.213-57.442,55.825-57.442,97.897
	c0,11.15,1.681,21.898,4.709,32.065h123.549v-70.522C388.267,357.64,375.614,339.576,356.607,332.664z"/>
<circle style="fill:#B4E66E;" cx="372.231" cy="416.32" r="88.18"/>
<path style="fill:#A0D755;" d="M416.324,480.76c-48.699,0-88.177-39.478-88.177-88.177c0-24.475,9.976-46.615,26.078-62.591
	c-40.06,8.315-70.167,43.805-70.167,86.331c0,48.699,39.478,88.177,88.177,88.177c24.225,0,46.162-9.774,62.1-25.587
	C428.519,480.12,422.496,480.76,416.324,480.76z"/>
<path d="M287.272,117.472c3.183,2.653,7.911,2.223,10.563-0.96c2.651-3.183,2.222-7.912-0.96-10.563
	c-17.046-14.205-41.206-23.285-71.809-26.987c-24.615-2.979-48.15-1.843-63.56-0.366c-12.1,1.159-21.224,11.229-21.224,23.424
	v17.707c0,4.143,3.357,7.5,7.5,7.5s7.5-3.357,7.5-7.5V102.02c0-4.423,3.29-8.074,7.654-8.492
	C188.716,91.056,252.438,88.442,287.272,117.472z"/>
<path d="M300.09,0H195.878c-14.854,0-29.096,6.005-39.526,16.572c-27.221,3.685-48.133,27.31-48.133,55.057v22.317
	c0,12.399,1.525,24.787,4.532,36.816l3.483,13.935v27.951c0,33.99,15.737,64.542,40.081,84.191v26.713
	c-4.349,0.514-8.439,2.876-11.074,6.829l-10.349,15.524l-54.205,19.711c-21.891,7.959-36.598,28.956-36.598,52.249v70.521
	c0,4.143,3.357,7.5,7.5,7.5s7.5-3.357,7.5-7.5v-70.521c0-17.008,10.739-32.34,26.724-38.151l51.163-18.605l31.267,43.775
	c2.656,3.72,6.791,6.068,11.346,6.445c0.431,0.036,0.86,0.054,1.289,0.054c4.099,0,8.037-1.619,10.964-4.545l4.688-4.688
	c0.438,3.492,2.029,6.63,4.395,9.005l-4.517,76.792c-0.243,4.135,2.912,7.685,7.047,7.928c0.15,0.009,0.299,0.013,0.447,0.013
	c3.94,0,7.246-3.075,7.48-7.06l4.3-73.102h8.49l4.3,73.102c0.234,3.985,3.54,7.06,7.48,7.06c0.148,0,0.297-0.004,0.447-0.013
	c4.135-0.243,7.29-3.793,7.047-7.928l-4.517-76.792c2.366-2.375,3.957-5.513,4.396-9.005l4.688,4.688
	c2.926,2.927,6.863,4.546,10.964,4.546c0.427,0,0.857-0.018,1.287-0.054c4.555-0.376,8.69-2.726,11.346-6.444l34.581-48.412
	c1.812-2.535,1.866-5.927,0.138-8.52l-11.714-17.571c-2.635-3.955-6.725-6.317-11.075-6.831V257.74
	c3.134-2.445,6.152-5.079,9.032-7.907c20.022-19.659,31.049-45.938,31.049-73.994v-31.142l3.483-13.934
	c3.007-12.026,4.532-24.413,4.532-36.817V31.549C331.638,14.152,317.485,0,300.09,0z M181.235,356.23
	c-0.046,0.046-0.174,0.162-0.407,0.15c-0.238-0.02-0.339-0.161-0.378-0.215l-31.571-44.2l8.843-13.265
	c0.155-0.232,0.463-0.302,0.704-0.151l49.533,30.959L181.235,356.23z M228.461,360.21c0,0.284-0.231,0.516-0.517,0.516h-16.032
	c-0.284,0-0.516-0.231-0.516-0.516v-12.925l8.532-8.532l8.532,8.532v12.925H228.461z M219.929,319.301l-48.613-30.384v-21.973
	c13.988,7.739,29.86,12.263,46.674,12.571c0.655,0.012,1.307,0.018,1.96,0.018c17.22-0.001,33.795-4.168,48.592-12.044v21.41
	c0,0.006,0.001,0.013,0.001,0.019L219.929,319.301z M290.978,311.966l-31.572,44.201c-0.038,0.053-0.139,0.194-0.376,0.214
	c-0.251,0.013-0.361-0.104-0.407-0.15l-26.724-26.722l49.533-30.959c0.234-0.146,0.55-0.078,0.703,0.151L290.978,311.966z
	 M316.638,93.946c0,11.178-1.374,22.341-4.085,33.18l-3.707,14.83c-0.148,0.595-0.224,1.205-0.224,1.818v32.064
	c0,23.998-9.432,46.475-26.559,63.291c-17.121,16.812-39.811,25.854-63.8,25.387c-47.988-0.878-87.029-42.09-87.029-91.868v-28.874
	c0-0.613-0.075-1.224-0.224-1.818l-3.707-14.831c-2.711-10.841-4.085-22.004-4.085-33.179V71.629
	c0-20.986,16.387-38.743,37.305-40.425c1.931-0.155,3.726-1.051,5.011-2.499C173.259,19.995,184.319,15,195.878,15H300.09
	c9.124,0,16.548,7.424,16.548,16.549V93.946z"/>
<path d="M106.395,380.904c-1.852-3.705-6.357-5.208-10.062-3.354c-3.705,1.852-5.207,6.356-3.354,10.062l4.631,9.264
	c1.696,3.392,2.593,7.19,2.593,10.984v40.527c0,4.143,3.357,7.5,7.5,7.5c4.143,0,7.5-3.357,7.5-7.5V407.86
	c0-6.111-1.444-12.229-4.177-17.692L106.395,380.904z"/>
<path d="M372.234,320.646c-52.757,0-95.677,42.921-95.677,95.677c0,52.757,42.92,95.678,95.677,95.678s95.678-42.921,95.678-95.678
	C467.912,363.566,424.991,320.646,372.234,320.646z M372.234,497c-44.485,0-80.677-36.192-80.677-80.678
	s36.191-80.677,80.677-80.677s80.678,36.191,80.678,80.677S416.721,497,372.234,497z"/>
<path d="M407.506,408.822h-27.771v-27.771c0-4.143-3.357-7.5-7.5-7.5s-7.5,3.357-7.5,7.5v27.771h-27.771c-4.143,0-7.5,3.357-7.5,7.5
	s3.357,7.5,7.5,7.5h27.771v27.771c0,4.143,3.357,7.5,7.5,7.5s7.5-3.357,7.5-7.5v-27.771h27.771c4.143,0,7.5-3.357,7.5-7.5
	S411.648,408.822,407.506,408.822z"/>
<g>
</g>
<g>
</g>
<g>
</g>
<g>
</g>
<g>
</g>
<g>
</g>
<g>
</g>
<g>
</g>
<g>
</g>
<g>
</g>
<g>
</g>
<g>
</g>
<g>
</g>
<g>
</g>
<g>
</g>
</svg>
