<svg xmlns="http://www.w3.org/2000/svg" height="612pt" version="1.1" viewBox="1 -9 612.787 612" width="612pt">
<g id="surface1">
<path d="M 265.632812 225.753906 L 347.367188 225.753906 L 347.367188 511.820312 L 265.632812 511.820312 Z M 265.632812 225.753906 " style=" stroke:none;fill-rule:nonzero;fill:rgb(100%,31.372549%,13.72549%);fill-opacity:1;" />
<path d="M 510.832031 184.890625 L 592.566406 184.890625 L 592.566406 511.824219 L 510.832031 511.824219 Z M 510.832031 184.890625 " style=" stroke:none;fill-rule:nonzero;fill:rgb(100%,31.372549%,13.72549%);fill-opacity:1;" />
<path d="M 388.234375 409.65625 L 469.964844 409.65625 L 469.964844 511.820312 L 388.234375 511.820312 Z M 388.234375 409.65625 " style=" stroke:none;fill-rule:nonzero;fill:rgb(100%,31.372549%,13.72549%);fill-opacity:1;" />
<path d="M 20.433594 266.621094 L 102.167969 266.621094 L 102.167969 511.824219 L 20.433594 511.824219 Z M 20.433594 266.621094 " style=" stroke:none;fill-rule:nonzero;fill:rgb(100%,31.372549%,13.72549%);fill-opacity:1;" />
<path d="M 143.035156 327.921875 L 224.765625 327.921875 L 224.765625 511.820312 L 143.035156 511.820312 Z M 143.035156 327.921875 " style=" stroke:none;fill-rule:nonzero;fill:rgb(100%,31.372549%,13.72549%);fill-opacity:1;" />
<path d="M 337.148438 82.722656 C 337.148438 99.648438 323.425781 113.371094 306.5 113.371094 C 289.570312 113.371094 275.851562 99.648438 275.851562 82.722656 C 275.851562 65.796875 289.570312 52.074219 306.5 52.074219 C 323.425781 52.074219 337.148438 65.796875 337.148438 82.722656 Z M 337.148438 82.722656 " style=" stroke:none;fill-rule:nonzero;fill:rgb(0%,84.313725%,87.45098%);fill-opacity:1;" />
<path d="M 459.75 266.621094 C 459.75 283.550781 446.027344 297.273438 429.101562 297.273438 C 412.171875 297.273438 398.449219 283.550781 398.449219 266.621094 C 398.449219 249.695312 412.171875 235.972656 429.101562 235.972656 C 446.027344 235.972656 459.75 249.695312 459.75 266.621094 Z M 459.75 266.621094 " style=" stroke:none;fill-rule:nonzero;fill:rgb(0%,84.313725%,87.45098%);fill-opacity:1;" />
<path d="M 91.949219 123.589844 C 91.949219 140.515625 78.226562 154.238281 61.300781 154.238281 C 44.371094 154.238281 30.652344 140.515625 30.652344 123.589844 C 30.652344 106.660156 44.371094 92.9375 61.300781 92.9375 C 78.226562 92.9375 91.949219 106.660156 91.949219 123.589844 Z M 91.949219 123.589844 " style=" stroke:none;fill-rule:nonzero;fill:rgb(0%,84.313725%,87.45098%);fill-opacity:1;" />
<path d="M 214.550781 184.890625 C 214.550781 201.816406 200.828125 215.539062 183.898438 215.539062 C 166.972656 215.539062 153.25 201.816406 153.25 184.890625 C 153.25 167.960938 166.972656 154.238281 183.898438 154.238281 C 200.828125 154.238281 214.550781 167.960938 214.550781 184.890625 Z M 214.550781 184.890625 " style=" stroke:none;fill-rule:nonzero;fill:rgb(0%,84.313725%,87.45098%);fill-opacity:1;" />
<path d="M 582.347656 41.855469 C 582.347656 58.78125 568.628906 72.503906 551.699219 72.503906 C 534.773438 72.503906 521.050781 58.78125 521.050781 41.855469 C 521.050781 24.929688 534.773438 11.207031 551.699219 11.207031 C 568.628906 11.207031 582.347656 24.929688 582.347656 41.855469 Z M 582.347656 41.855469 " style=" stroke:none;fill-rule:nonzero;fill:rgb(0%,84.313725%,87.45098%);fill-opacity:1;" />
<path d="M 10.214844 542.472656 L 602.785156 542.472656 L 602.785156 583.339844 L 10.214844 583.339844 Z M 10.214844 542.472656 " style=" stroke:none;fill-rule:nonzero;fill:rgb(0%,84.313725%,87.45098%);fill-opacity:1;" />
<path d="M 265.632812 215.539062 C 259.992188 215.539062 255.417969 220.113281 255.417969 225.753906 L 255.417969 511.820312 C 255.417969 517.464844 259.992188 522.039062 265.632812 522.039062 L 347.367188 522.039062 C 353.007812 522.039062 357.582031 517.464844 357.582031 511.820312 L 357.582031 225.753906 C 357.582031 220.113281 353.007812 215.539062 347.367188 215.539062 Z M 337.148438 501.605469 L 275.851562 501.605469 L 275.851562 235.972656 L 337.148438 235.972656 Z M 337.148438 501.605469 " style=" stroke:none;fill-rule:nonzero;fill:rgb(13.72549%,12.156863%,12.54902%);fill-opacity:1;" />
<path d="M 510.832031 174.671875 C 505.191406 174.671875 500.617188 179.246094 500.617188 184.890625 L 500.617188 511.824219 C 500.617188 517.464844 505.191406 522.039062 510.832031 522.039062 L 592.566406 522.039062 C 598.210938 522.039062 602.785156 517.464844 602.785156 511.824219 L 602.785156 184.890625 C 602.785156 179.246094 598.207031 174.671875 592.566406 174.671875 Z M 582.351562 501.605469 L 521.050781 501.605469 L 521.050781 195.105469 L 582.351562 195.105469 Z M 582.351562 501.605469 " style=" stroke:none;fill-rule:nonzero;fill:rgb(13.72549%,12.156863%,12.54902%);fill-opacity:1;" />
<path d="M 388.234375 399.4375 C 382.589844 399.4375 378.015625 404.011719 378.015625 409.65625 L 378.015625 511.820312 C 378.015625 517.464844 382.589844 522.039062 388.234375 522.039062 L 469.964844 522.039062 C 475.609375 522.039062 480.183594 517.464844 480.183594 511.820312 L 480.183594 409.65625 C 480.183594 404.011719 475.609375 399.4375 469.964844 399.4375 Z M 459.75 501.605469 L 398.449219 501.605469 L 398.449219 419.871094 L 459.75 419.871094 Z M 459.75 501.605469 " style=" stroke:none;fill-rule:nonzero;fill:rgb(13.72549%,12.156863%,12.54902%);fill-opacity:1;" />
<path d="M 20.433594 522.039062 L 102.167969 522.039062 C 107.808594 522.039062 112.382812 517.464844 112.382812 511.824219 L 112.382812 266.621094 C 112.382812 260.980469 107.808594 256.40625 102.167969 256.40625 L 20.433594 256.40625 C 14.789062 256.40625 10.214844 260.980469 10.214844 266.621094 L 10.214844 511.824219 C 10.214844 517.464844 14.792969 522.039062 20.433594 522.039062 Z M 30.648438 276.839844 L 91.949219 276.839844 L 91.949219 501.605469 L 30.648438 501.605469 Z M 30.648438 276.839844 " style=" stroke:none;fill-rule:nonzero;fill:rgb(13.72549%,12.156863%,12.54902%);fill-opacity:1;" />
<path d="M 143.035156 317.707031 C 137.390625 317.707031 132.816406 322.28125 132.816406 327.921875 L 132.816406 511.820312 C 132.816406 517.464844 137.390625 522.039062 143.035156 522.039062 L 224.765625 522.039062 C 230.410156 522.039062 234.984375 517.464844 234.984375 511.820312 L 234.984375 327.921875 C 234.984375 322.277344 230.410156 317.707031 224.765625 317.707031 Z M 214.550781 501.605469 L 153.25 501.605469 L 153.25 338.136719 L 214.550781 338.136719 Z M 214.550781 501.605469 " style=" stroke:none;fill-rule:nonzero;fill:rgb(13.72549%,12.156863%,12.54902%);fill-opacity:1;" />
<path d="M 61.300781 164.457031 C 73.082031 164.417969 84.265625 159.265625 91.949219 150.335938 L 143.964844 176.347656 C 139.054688 198.378906 152.933594 220.214844 174.964844 225.125 C 196.996094 230.03125 218.832031 216.152344 223.742188 194.121094 C 225.738281 185.160156 224.65625 175.792969 220.679688 167.519531 L 282.707031 115.894531 C 293.394531 123.808594 307.351562 125.804688 319.832031 121.207031 L 398.695312 239.589844 C 383.621094 256.386719 385.019531 282.226562 401.820312 297.296875 C 418.621094 312.371094 444.457031 310.972656 459.53125 294.171875 C 474.417969 277.578125 473.261719 252.117188 456.929688 236.941406 L 541.726562 81.414062 C 544.984375 82.265625 548.335938 82.703125 551.699219 82.722656 C 574.433594 82.886719 592.992188 64.589844 593.15625 41.855469 C 593.320312 19.125 575.027344 0.5625 552.292969 0.398438 C 529.558594 0.234375 511 18.53125 510.835938 41.261719 C 510.75 52.742188 515.464844 63.734375 523.839844 71.585938 L 439.039062 227.113281 C 431.359375 224.988281 423.199219 225.363281 415.746094 228.1875 L 336.863281 109.804688 C 351.976562 93.042969 350.640625 67.203125 333.878906 52.089844 C 317.117188 36.976562 291.277344 38.3125 276.164062 55.074219 C 265.058594 67.386719 262.496094 85.195312 269.679688 100.140625 L 207.652344 151.765625 C 190.636719 139.351562 166.9375 142.132812 153.25 158.140625 L 101.238281 132.128906 C 105.953125 110.058594 91.886719 88.339844 69.8125 83.625 C 47.742188 78.90625 26.027344 92.976562 21.308594 115.046875 C 16.59375 137.117188 30.660156 158.835938 52.730469 163.550781 C 55.546875 164.15625 58.421875 164.457031 61.300781 164.457031 Z M 551.699219 21.421875 C 562.984375 21.421875 572.132812 30.570312 572.132812 41.855469 C 572.132812 53.140625 562.984375 62.289062 551.699219 62.289062 C 540.414062 62.289062 531.265625 53.140625 531.265625 41.855469 C 531.265625 30.570312 540.414062 21.421875 551.699219 21.421875 Z M 449.53125 266.621094 C 449.53125 277.90625 440.386719 287.054688 429.101562 287.054688 C 417.816406 287.054688 408.667969 277.90625 408.667969 266.621094 C 408.667969 255.335938 417.816406 246.1875 429.101562 246.1875 C 440.386719 246.1875 449.53125 255.335938 449.53125 266.621094 Z M 306.5 62.289062 C 317.785156 62.289062 326.933594 71.4375 326.933594 82.722656 C 326.933594 94.007812 317.785156 103.15625 306.5 103.15625 C 295.214844 103.15625 286.066406 94.007812 286.066406 82.722656 C 286.066406 71.4375 295.214844 62.289062 306.5 62.289062 Z M 183.898438 164.457031 C 195.183594 164.457031 204.332031 173.605469 204.332031 184.890625 C 204.332031 196.175781 195.183594 205.320312 183.898438 205.320312 C 172.613281 205.320312 163.46875 196.175781 163.46875 184.890625 C 163.46875 173.605469 172.613281 164.457031 183.898438 164.457031 Z M 61.300781 103.15625 C 72.585938 103.15625 81.734375 112.304688 81.734375 123.589844 C 81.734375 134.875 72.585938 144.023438 61.300781 144.023438 C 50.015625 144.023438 40.867188 134.875 40.867188 123.589844 C 40.867188 112.304688 50.015625 103.15625 61.300781 103.15625 Z M 61.300781 103.15625 " style=" stroke:none;fill-rule:nonzero;fill:rgb(13.72549%,12.156863%,12.54902%);fill-opacity:1;" />
<path d="M 602.785156 532.253906 L 10.214844 532.253906 C 4.574219 532.253906 0 536.828125 0 542.472656 L 0 583.339844 C 0 588.980469 4.574219 593.554688 10.214844 593.554688 L 602.785156 593.554688 C 608.425781 593.554688 613 588.980469 613 583.339844 L 613 542.472656 C 613 536.828125 608.425781 532.253906 602.785156 532.253906 Z M 592.566406 573.121094 L 20.433594 573.121094 L 20.433594 552.6875 L 592.566406 552.6875 Z M 592.566406 573.121094 " style=" stroke:none;fill-rule:nonzero;fill:rgb(13.72549%,12.156863%,12.54902%);fill-opacity:1;" />
</g>
</svg>