<?xml version="1.0" encoding="iso-8859-1"?>
<!-- Generator: Adobe Illustrator 19.0.0, SVG Export Plug-In . SVG Version: 6.00 Build 0)  -->
<svg version="1.1" id="Capa_1" xmlns="http://www.w3.org/2000/svg" xmlns:xlink="http://www.w3.org/1999/xlink" x="0px" y="0px"
	 viewBox="0 0 512 512" style="enable-background:new 0 0 512 512;" xml:space="preserve">
<path style="fill:#FFE1A0;" d="M124.936,504.959H42.967V392.977c0-2.761,2.239-4.999,4.999-4.999h71.97
	c2.761,0,4.999,2.239,4.999,4.999V504.959z"/>
<path style="fill:#EFCC86;" d="M124.936,504.959H83.951V387.978h35.985c2.761,0,4.999,2.239,4.999,4.999
	C124.936,392.977,124.936,504.959,124.936,504.959z"/>
<path style="fill:#44C1DD;" d="M239.635,504.959h-81.969V315.485c0-2.761,2.239-4.999,4.999-4.999h71.97
	c2.761,0,4.999,2.239,4.999,4.999L239.635,504.959L239.635,504.959z"/>
<path style="fill:#37B0C4;" d="M239.635,504.959h-40.984V310.486h35.985c2.761,0,4.999,2.239,4.999,4.999V504.959z"/>
<path style="fill:#F16645;" d="M354.335,504.959h-81.97V261.996c0-2.761,2.239-4.999,4.999-4.999h71.971
	c2.761,0,4.999,2.239,4.999,4.999V504.959z"/>
<path style="fill:#EB5836;" d="M354.335,504.959h-40.985V256.996h35.985c2.761,0,4.999,2.239,4.999,4.999v242.964H354.335z"/>
<path style="fill:#38C96C;" d="M469.033,504.959h-81.969V75.536c0-2.761,2.239-4.999,4.999-4.999h71.97
	c2.761,0,4.999,2.239,4.999,4.999V504.959z"/>
<path style="fill:#2BAA55;" d="M469.033,504.959h-40.984V70.537h35.985c2.761,0,4.999,2.239,4.999,4.999V504.959z"/>
<path d="M346.845,32.353c-0.812-2.254-2.652-3.984-4.95-4.657c-2.299-0.671-4.782-0.206-6.68,1.256l-45.569,35.089
	c-3.281,2.527-3.893,7.235-1.367,10.516c2.528,3.282,7.235,3.893,10.516,1.367l28.609-22.03
	C290.921,163.612,218.08,225.871,162.04,259.148c-64.045,38.029-120.749,47.627-121.314,47.72c-4.085,0.666-6.859,4.516-6.195,8.603
	c0.598,3.681,3.779,6.298,7.393,6.298c0.399,0,0.805-0.032,1.211-0.098c2.404-0.39,59.624-10.008,126.041-49.317
	c39.024-23.096,73.042-51.698,101.11-85.009c30.988-36.778,54.728-79.391,70.74-126.891l11.911,33.074
	c1.101,3.058,3.982,4.96,7.056,4.96c0.843,0,1.702-0.144,2.541-0.446c3.896-1.403,5.918-5.699,4.514-9.595L346.845,32.353z"/>
<path d="M504.46,497.002h-27.928v-275.08c0-4.141-3.357-7.499-7.499-7.499s-7.499,3.357-7.499,7.499v275.08h-66.971V77.576h66.971
	v92.02c0,4.141,3.357,7.499,7.499,7.499s7.499-3.357,7.499-7.499v-94.52c0-6.892-5.606-12.498-12.498-12.498h-71.97
	c-6.892,0-12.498,5.606-12.498,12.498v421.926h-17.732V261.537c0-6.892-5.606-12.498-12.498-12.498h-71.97
	c-6.892,0-12.498,5.606-12.498,12.498v235.466h-17.732V315.027c0-6.892-5.606-12.498-12.498-12.498h-71.97
	c-6.892,0-12.498,5.606-12.498,12.498v181.975h-17.732V392.519c0-6.892-5.606-12.498-12.498-12.498H47.966
	c-6.892,0-12.498,5.606-12.498,12.498v24.038c0,4.141,3.357,7.499,7.499,7.499s7.499-3.357,7.499-7.499v-21.539h66.971v101.983
	H50.466v-26.954c0-4.141-3.357-7.499-7.499-7.499s-7.499,3.357-7.499,7.499v26.954H15.04V7.499C15.04,3.357,11.682,0,7.541,0
	S0.042,3.357,0.042,7.499v497.002c0,4.141,3.357,7.499,7.499,7.499h35.427h81.969h32.73h81.969h32.73h81.969h32.73h81.969h35.427
	c4.141,0,7.499-3.137,7.499-7.278S508.602,497.002,504.46,497.002z M165.164,497.002V317.527h66.971v179.476H165.164z
	 M279.864,497.002V264.036h66.971v232.966H279.864z"/>
<g>
</g>
<g>
</g>
<g>
</g>
<g>
</g>
<g>
</g>
<g>
</g>
<g>
</g>
<g>
</g>
<g>
</g>
<g>
</g>
<g>
</g>
<g>
</g>
<g>
</g>
<g>
</g>
<g>
</g>
</svg>
