<svg xmlns="http://www.w3.org/2000/svg" xmlns:xlink="http://www.w3.org/1999/xlink" viewBox="0 0 1469.48 227.12"><defs><style>.cls-1{fill:#fff;}.cls-2{fill:#253b80;}.cls-3{fill:#0066b2;}.cls-4{fill:#36495d;}.cls-5{fill:#006fcf;}.cls-6{fill:#f9a533;}.cls-7{fill:#f16522;}.cls-8{fill:#e41b24;}.cls-9{fill:#f89e1c;}.cls-10{mask:url(#mask);}.cls-11{fill:#f7f7f7;}.cls-12{mask:url(#mask-2);}</style><mask id="mask" x="1146.97" y="53.84" width="322.3" height="131.98" maskUnits="userSpaceOnUse"><g id="bluebox-55x54-b"><polygon id="bluebox-55x54-a" class="cls-1" points="1146.97 53.84 1146.97 185.81 1469.26 185.81 1469.26 53.84 1146.97 53.84"/></g></mask><mask id="mask-2" x="1210.54" y="138.68" width="258.95" height="37.97" maskUnits="userSpaceOnUse"><g id="bluebox-55x54-d"><polygon id="bluebox-55x54-c" class="cls-1" points="1469.48 176.65 1469.48 138.68 1210.54 138.68 1210.54 176.65 1469.48 176.65"/></g></mask></defs><g id="Layer_2" data-name="Layer 2"><g id="Layer_1-2" data-name="Layer 1"><rect class="cls-2" width="322.52" height="227.12" rx="29.88"/><rect class="cls-3" x="382.32" width="322.52" height="227.12" rx="29.88"/><rect class="cls-4" x="764.64" width="322.52" height="227.12" rx="29.88"/><rect class="cls-5" x="1146.97" width="322.52" height="227.12" rx="29.88"/><path class="cls-1" d="M77.44,99.92c-1,6.3-5.77,6.3-10.43,6.3H64.36l1.86-11.77a1.46,1.46,0,0,1,1.44-1.24h1.22c3.17,0,6.16,0,7.71,1.81C77.51,96.1,77.8,97.7,77.44,99.92Zm-2-16.46H57.85a2.45,2.45,0,0,0-2.42,2.06l-7.1,45.06a1.46,1.46,0,0,0,1.45,1.69h8.39a2.44,2.44,0,0,0,2.41-2.06l1.91-12.16A2.45,2.45,0,0,1,64.9,116h5.57c11.57,0,18.25-5.6,20-16.7.78-4.85,0-8.67-2.25-11.34C85.73,85,81.3,83.46,75.42,83.46Z"/><path class="cls-1" d="M116.21,116.09a9.38,9.38,0,0,1-9.49,8,6.52,6.52,0,0,1-7-8.18,9.41,9.41,0,0,1,9.43-8.1,7.09,7.09,0,0,1,5.61,2.29A7.27,7.27,0,0,1,116.21,116.09Zm11.73-16.37h-8.41a1.46,1.46,0,0,0-1.45,1.23l-.37,2.36-.59-.86c-1.82-2.64-5.89-3.53-9.94-3.53-9.3,0-17.24,7-18.79,16.93a15.88,15.88,0,0,0,3.14,12.92c2.56,3,6.23,4.28,10.6,4.28a16.08,16.08,0,0,0,11.64-4.82l-.37,2.34a1.46,1.46,0,0,0,1.44,1.7h7.58a2.44,2.44,0,0,0,2.41-2.07l4.55-28.79A1.46,1.46,0,0,0,127.94,99.72Z"/><path class="cls-1" d="M172.75,99.72H164.3a2.46,2.46,0,0,0-2,1.07L150.61,118l-4.94-16.5a2.43,2.43,0,0,0-2.34-1.74H135a1.46,1.46,0,0,0-1.39,1.93L142.94,129l-8.76,12.36a1.47,1.47,0,0,0,1.2,2.32h8.44a2.42,2.42,0,0,0,2-1L174,102A1.46,1.46,0,0,0,172.75,99.72Z"/><path class="cls-1" d="M202.77,99.92c-1,6.3-5.77,6.3-10.43,6.3h-2.65l1.86-11.77A1.46,1.46,0,0,1,193,93.21h1.22c3.17,0,6.16,0,7.71,1.81C202.84,96.1,203.12,97.7,202.77,99.92Zm-2-16.46H183.17a2.45,2.45,0,0,0-2.41,2.06l-7.1,45.06a1.45,1.45,0,0,0,1.44,1.69h9a1.71,1.71,0,0,0,1.68-1.44l2-12.78a2.44,2.44,0,0,1,2.41-2.06h5.56c11.58,0,18.25-5.6,20-16.7.79-4.85,0-8.67-2.24-11.34C211.05,85,206.63,83.46,200.74,83.46Z"/><path class="cls-1" d="M241.54,116.09a9.38,9.38,0,0,1-9.5,8,6.52,6.52,0,0,1-7-8.18,9.43,9.43,0,0,1,9.43-8.1,7.09,7.09,0,0,1,5.61,2.29A7.24,7.24,0,0,1,241.54,116.09Zm11.72-16.37h-8.4a1.46,1.46,0,0,0-1.45,1.23l-.37,2.36-.59-.86c-1.82-2.64-5.88-3.53-9.94-3.53-9.29,0-17.23,7-18.78,16.93a15.91,15.91,0,0,0,3.13,12.92c2.57,3,6.23,4.28,10.6,4.28a16.11,16.11,0,0,0,11.65-4.82l-.38,2.34a1.47,1.47,0,0,0,1.45,1.7h7.58a2.45,2.45,0,0,0,2.41-2.07l4.55-28.79A1.47,1.47,0,0,0,253.26,99.72Z"/><path class="cls-1" d="M263.18,84.7,256,130.58a1.46,1.46,0,0,0,1.45,1.69h7.25a2.44,2.44,0,0,0,2.41-2.06l7.11-45.06a1.46,1.46,0,0,0-1.44-1.69h-8.12A1.47,1.47,0,0,0,263.18,84.7Z"/><polygon class="cls-1" points="529.89 149.14 513.09 149.14 523.59 84.61 540.39 84.61 529.89 149.14"/><path class="cls-1" d="M499,84.62l-16,44.37-1.89-9.55h0l-5.65-29s-.68-5.81-8-5.81H441l-.31,1.09a62.8,62.8,0,0,1,17.57,7.37l14.59,56.06h17.5L517,84.62Z"/><path class="cls-1" d="M631.09,149.14h15.42L633.06,84.62h-13.5c-6.24,0-7.76,4.8-7.76,4.8l-25,59.72h17.51l3.5-9.59h21.36ZM612.6,126.31l8.83-24.14,5,24.14Z"/><path class="cls-1" d="M588.06,100.13l2.4-13.86a48.56,48.56,0,0,0-15.11-2.81c-8.33,0-28.13,3.65-28.13,21.36,0,16.67,23.23,16.88,23.23,25.63s-20.83,7.19-27.71,1.67l-2.5,14.48s7.5,3.65,19,3.65S588,144.31,588,128.16c0-16.78-23.44-18.34-23.44-25.63S580.88,96.17,588.06,100.13Z"/><path class="cls-6" d="M481.05,119.44l-5.65-29s-.68-5.81-8-5.81H441l-.31,1.09a65.15,65.15,0,0,1,24.93,12.52A50.35,50.35,0,0,1,481.05,119.44Z"/><rect class="cls-7" x="898.81" y="64.87" width="54.18" height="97.37"/><path class="cls-8" d="M902.25,113.56A61.84,61.84,0,0,1,925.9,64.87a61.93,61.93,0,1,0,0,97.37,61.82,61.82,0,0,1-23.65-48.68"/><path class="cls-9" d="M1026.09,113.55A61.92,61.92,0,0,1,925.9,162.24a61.94,61.94,0,0,0,0-97.37,61.92,61.92,0,0,1,100.19,48.68m-5.91,38.38v-2h.81v-.4h-2v.4h.8v2Zm4,0v-2.4h-.63l-.72,1.65-.72-1.65h-.63v2.4h.44v-1.81l.68,1.56h.46l.67-1.57v1.82Z"/><g class="cls-10"><path class="cls-11" d="M1429.78,110.14H1454V53.84h-25.82v9l-5.75-9h-22.51V65.22l-5-11.38h-37.21a34.42,34.42,0,0,0-5.23.39,30.05,30.05,0,0,0-4.19,1,28.41,28.41,0,0,0-3.08,1.18,25.24,25.24,0,0,0-3.34,1.86v-4.4H1220.35l-3.3,9.82-3.37-9.82h-28.26V65.35l-5.09-11.51h-23.06L1147,77.92v32.22h16.32l3-8.08h5.75l3.09,8.08h125.62V102l6.3,8.19h34.71v-4.09a23.55,23.55,0,0,0,2.77,1.53,26.34,26.34,0,0,0,2.9,1.13,28.64,28.64,0,0,0,3.68.91,32.53,32.53,0,0,0,5.89.52h20.77l3-8.08h5.75l3.09,8.08h34.83v-8.35Zm39.48,72.21V129.52H1269.33l-5.1,7.21-5-7.21h-57.5v56.29H1259l5-7.32,5.15,7.32H1305V173.67h-.38a34.67,34.67,0,0,0,12.1-2.14v14.28h25v-8.18l6.29,8.18h108.48a25.44,25.44,0,0,0,8.67-1.48A22.17,22.17,0,0,0,1469.26,182.35Z"/></g><g class="cls-12"><path class="cls-5" d="M1456.68,169.06h-19.47v7.59h19.2c8.19,0,13.07-5,13.07-12.1,0-6.78-4.39-10.73-11.77-10.73h-8.78a3.46,3.46,0,0,1-3.69-3.64,3.56,3.56,0,0,1,3.69-3.8h16.48l3.37-7.7H1449.2c-8.2,0-13.08,5-13.08,11.83,0,7,4.62,11,11.83,11h8.73a3.51,3.51,0,0,1,3.74,3.69A3.62,3.62,0,0,1,1456.68,169.06Zm-36.12,0h-19.47v7.59h19.2c8.19,0,13.07-5,13.07-12.1,0-6.78-4.39-10.73-11.77-10.73h-8.79a3.47,3.47,0,0,1-3.69-3.64,3.56,3.56,0,0,1,3.69-3.8h16.49l3.37-7.7h-19.59c-8.19,0-13.07,5-13.07,11.83,0,7,4.61,11,11.83,11h8.73a3.51,3.51,0,0,1,3.74,3.69A3.62,3.62,0,0,1,1420.56,169.06Zm-25-22.68v-7.7h-30.37v38h30.37V169h-21.26v-7.64h20.78v-7.6h-20.78v-7.38Zm-50.87.06c3.25,0,5,2.11,5,4.72s-1.74,4.66-5,4.66H1334v-9.38ZM1334,163h4.29l11.33,13.67H1361l-12.64-14c6.46-1.2,10.31-5.86,10.31-11.94,0-7.1-5-12-13.13-12h-20.61v38H1334Zm-23.22-11.55a4.44,4.44,0,0,1-4.82,4.66H1295v-9.32H1306C1309.15,146.77,1310.77,148.82,1310.77,151.43Zm-24.84-12.75v38H1295V164.12h11.45c8.3,0,13.45-5.42,13.45-12.75,0-7.53-5-12.69-13.13-12.69Zm-13.4,38h11.4l-15.25-19.15,15.14-18.82h-11.07l-9.33,12-9.27-12h-11.39l15.18,19-15.13,19h11.07l9.32-12.2Zm-31.62-30.27v-7.7h-30.37v38h30.37V169h-21.26v-7.64h20.77v-7.6h-20.77v-7.38Z"/></g><path class="cls-5" d="M1417.14,78.25,1417,75.1l1.9,3.15L1433.46,101h10.64V63h-8.9V85l.11,2.83L1433.63,85l-14.21-22h-11.17v38h8.89Zm-36.34-1.08,2.77-7.11,2.76,7.11,3.37,8.4h-12.21ZM1395.88,101h10.25l-16.22-38h-12l-16.27,38h9.71l3.2-8.14h18.06Zm-39.76,0h.49l3.74-8.09h-2.77c-6.24,0-9.92-3.9-9.92-10.63v-.54c0-6,3.3-10.52,9.82-10.52h9.87V63h-10.63c-11.72,0-18.12,7.86-18.12,18.66v.65C1338.6,93.6,1345.16,100.92,1356.12,101Zm-32.38,0h9.11V63h-9.11v38Zm-19.15-30.21c3.25,0,5,2.11,5,4.71s-1.74,4.67-5,4.67H1293.9V70.77ZM1293.9,87.31h4.29L1309.53,101h11.33l-12.64-14c6.46-1.19,10.31-5.86,10.31-11.93,0-7.11-5-12-13.13-12h-20.61v38h9.11Zm-15.78-16.6V63h-30.37v38h30.37V93.22h-21.26V85.68h20.77V78.09h-20.77V70.71Zm-75.56,4.34-.22-10.25L1212.87,101h8.24l10.53-36-.22,10v26h8.84V63h-16L1217,89.91,1209.72,63h-16v38h8.84Zm-36.28,2.12,2.76-7.11,2.77,7.11,3.36,8.4H1163ZM1181.35,101h10.26l-16.22-38h-12l-16.27,38h9.71l3.2-8.14h18.06Z"/></g></g></svg>