<svg id="Capa_1" enable-background="new 0 0 512 512" height="512" viewBox="0 0 512 512" width="512" xmlns="http://www.w3.org/2000/svg"><g><g><path d="m395.949 47.5h-279.895c-39.3 0-71.159 31.859-71.159 71.159v314.682c0 39.3 31.859 71.159 71.159 71.159h279.896c39.3 0 71.159-31.859 71.159-71.159v-314.682c-.001-39.3-31.86-71.159-71.16-71.159z" fill="#d8aa8b"/><path d="m148.195 504.5h-32.14c-39.3 0-71.16-31.86-71.16-71.16v-314.68c0-39.3 31.86-71.16 71.16-71.16h32.14c-39.3 0-71.16 31.86-71.16 71.16v314.68c0 39.3 31.86 71.16 71.16 71.16z" fill="#ce9875"/><path d="m321.121 87.14h-130.239c-21.992 0-39.82-17.828-39.82-39.82 0-21.992 17.828-39.82 39.82-39.82h130.239c21.992 0 39.82 17.828 39.82 39.82 0 21.992-17.828 39.82-39.82 39.82z" fill="#bed8fb"/><path d="m243.792 87.14h-52.91c-21.99 0-39.82-17.83-39.82-39.82 0-11 4.46-20.95 11.66-28.16 7.21-7.2 17.16-11.66 28.16-11.66h52.91c-10.99 0-20.95 4.46-28.16 11.66-7.2 7.21-11.66 17.16-11.66 28.16 0 21.99 17.83 39.82 39.82 39.82z" fill="#9dc6fb"/><path d="m370.631 112.416h-230.164c-21.772 0-39.421 17.649-39.421 39.421v271.734c0 21.772 17.649 39.421 39.421 39.421h230.163c21.772 0 39.421-17.649 39.421-39.421v-271.734c.001-21.772-17.649-39.421-39.42-39.421z" fill="#f8f6f9"/><g><path d="m293.346 287.704 32.297-32.297c5.449-5.449 5.449-14.285 0-19.734l-18.063-18.063c-5.449-5.449-14.285-5.449-19.734 0l-32.297 32.297-32.297-32.297c-5.449-5.449-14.285-5.449-19.734 0l-18.063 18.063c-5.449 5.45-5.449 14.285 0 19.734l32.297 32.297-32.297 32.297c-5.449 5.449-5.449 14.285 0 19.734l18.063 18.063c5.449 5.449 14.285 5.449 19.734 0l32.297-32.297 32.297 32.297c5.449 5.449 14.285 5.449 19.734 0l18.063-18.063c5.449-5.449 5.449-14.285 0-19.734z" fill="#e27f83"/></g></g><g><path d="m395.945 40h-28.072c-3.529-22.628-23.149-40-46.752-40-4.142 0-7.5 3.358-7.5 7.5s3.358 7.5 7.5 7.5c17.821 0 32.32 14.499 32.32 32.32 0 8.628-3.362 16.747-9.46 22.853-6.113 6.105-14.231 9.467-22.86 9.467h-130.24c-17.821 0-32.32-14.499-32.32-32.32 0-8.628 3.362-16.747 9.46-22.853 6.113-6.104 14.231-9.467 22.86-9.467h100.24c4.142 0 7.5-3.358 7.5-7.5s-3.358-7.5-7.5-7.5h-100.24c-12.631 0-24.514 4.92-33.467 13.86-7.183 7.193-11.765 16.287-13.287 26.14h-28.073c-43.373 0-78.66 35.287-78.66 78.66v314.68c0 43.374 35.287 78.66 78.66 78.66h279.89c43.374 0 78.66-35.287 78.66-78.66v-314.68c.001-43.373-35.286-78.66-78.659-78.66zm-88.924 54.64v10.28h-102.039v-10.28zm-.486 25.28c-1.577 5.86-6.922 10.192-13.274 10.192h-74.521c-6.351 0-11.696-4.332-13.274-10.192zm153.07 313.42c0 35.103-28.558 63.66-63.66 63.66h-279.89c-35.102 0-63.66-28.558-63.66-63.66v-314.68c0-35.103 28.558-63.66 63.66-63.66h28.14c3.634 22.163 22.714 39.184 45.788 39.617v10.303h-49.51c-25.877 0-46.93 21.048-46.93 46.92v215.61c0 4.142 3.358 7.5 7.5 7.5s7.5-3.358 7.5-7.5v-215.61c0-17.601 14.324-31.92 31.93-31.92h49.739c1.763 14.18 13.881 25.192 28.53 25.192h74.521c14.649 0 26.767-11.012 28.53-25.192h48.84c17.601 0 31.92 14.319 31.92 31.92v271.73c0 17.601-14.319 31.92-31.92 31.92h-230.16c-17.606 0-31.93-14.319-31.93-31.92v-26.12c0-4.142-3.358-7.5-7.5-7.5s-7.5 3.358-7.5 7.5v26.12c0 25.872 21.053 46.92 46.93 46.92h230.16c25.872 0 46.92-21.048 46.92-46.92v-271.73c0-25.872-21.048-46.92-46.92-46.92h-48.61v-10.302c12.294-.229 23.828-5.111 32.567-13.838 7.095-7.105 11.647-16.066 13.225-25.78h28.132c35.103 0 63.66 28.558 63.66 63.66v314.68z"/><path d="m173.868 329.868c0 5.731 2.232 11.119 6.284 15.17l18.062 18.063c8.365 8.364 21.975 8.364 30.341 0l26.993-26.994 26.994 26.994c4.182 4.183 9.676 6.273 15.17 6.273s10.988-2.091 15.171-6.273l18.062-18.062c4.052-4.052 6.284-9.44 6.284-15.171 0-5.73-2.232-11.118-6.284-15.17l-26.993-26.994 26.993-26.993c4.052-4.052 6.284-9.44 6.284-15.17 0-5.731-2.232-11.119-6.284-15.17l-18.062-18.063c-8.365-8.364-21.976-8.364-30.341 0l-26.994 26.994-26.993-26.994c-8.365-8.364-21.975-8.364-30.341 0l-18.062 18.062c-4.052 4.052-6.284 9.44-6.284 15.171 0 5.73 2.232 11.118 6.284 15.17l26.993 26.994-26.993 26.993c-4.052 4.052-6.284 9.439-6.284 15.17zm16.891-4.564 32.296-32.297c2.929-2.929 2.929-7.678 0-10.606l-32.296-32.297c-1.219-1.219-1.891-2.839-1.891-4.563s.671-3.345 1.891-4.564l18.062-18.062c2.517-2.518 6.611-2.516 9.128 0l32.296 32.297c1.406 1.407 3.314 2.197 5.303 2.197s3.897-.79 5.303-2.197l32.297-32.297c2.517-2.517 6.611-2.517 9.128 0l18.062 18.063c1.219 1.219 1.891 2.839 1.891 4.563s-.671 3.344-1.891 4.563l-32.296 32.297c-2.929 2.929-2.929 7.678 0 10.606l32.296 32.297c1.219 1.219 1.891 2.839 1.891 4.563s-.671 3.345-1.891 4.564l-18.062 18.062c-2.517 2.518-6.611 2.516-9.128 0l-32.297-32.297c-1.406-1.407-3.314-2.197-5.303-2.197s-3.897.79-5.303 2.197l-32.296 32.296c-2.517 2.518-6.611 2.516-9.128 0l-18.062-18.063c-1.219-1.219-1.891-2.839-1.891-4.563 0-1.722.672-3.343 1.891-4.562z"/></g></g></svg>