<svg height="512" viewBox="0 0 512 512" width="512" xmlns="http://www.w3.org/2000/svg"><g><g><g><g fill="#4e901e"><circle cx="264" cy="248" r="71.998"/><path d="m428.05 151.83-67.88-67.88a48 48 0 0 1 -67.89 0l-192.33 192.33a48 48 0 0 1 0 67.89l67.88 67.88a48 48 0 0 1 67.89 0l192.33-192.33a48 48 0 0 1 0-67.89zm0 0-67.88-67.88a48 48 0 0 1 -67.89 0l-192.33 192.33a48 48 0 0 1 0 67.89l67.88 67.88a48 48 0 0 1 67.89 0l192.33-192.33a48 48 0 0 1 0-67.89z"/><path d="m326.23 16.07-294.16 294.16 169.7 169.7 294.16-294.16zm-90.51 395.98a48 48 0 0 0 -67.89 0l-67.88-67.88a48 48 0 0 0 0-67.89l192.33-192.33a48 48 0 0 0 67.89 0l67.88 67.88a48 48 0 0 0 0 67.89z"/></g><g><circle cx="264" cy="248" fill="#ffda44" r="71.998"/><g fill="none"><path d="m247.029 231.029-5.656-5.656"/><path d="m280.971 264.971 5.656 5.656"/></g></g><path d="m428.05 151.83-67.88-67.88a48 48 0 0 1 -67.89 0l-192.33 192.33a48 48 0 0 1 0 67.89l67.88 67.88a48 48 0 0 1 67.89 0l192.33-192.33a48 48 0 0 1 0-67.89zm-113.14 147.08a72 72 0 1 1 0-101.82 71.992 71.992 0 0 1 0 101.82z" fill="#91cc04"/></g><g fill="none"><path d="m16 496 96-96"/><path d="m72 352-28 28"/><path d="m28 396-12 12"/><path d="m16 448 52-52"/><path d="m144 424-32 32"/><path d="m168 456-40 40"/><path d="m96 472-8 8"/></g></g><g><g><g><path d="m264 327.962a79.752 79.752 0 0 1 -56.569-23.393 80.094 80.094 0 1 1 56.569 23.393zm-45.255-34.707a64 64 0 1 0 0-90.51 64.074 64.074 0 0 0 0 90.51z"/><path d="m269.657 284.284a8 8 0 0 1 -5.657-13.657l16.971-16.97-5.658-5.657-16.969 16.971a8 8 0 0 1 -11.315 0l-16.97-16.971a8 8 0 0 1 0-11.314l22.627-22.627a8 8 0 0 1 11.314 11.314l-16.971 16.97 5.658 5.657 16.969-16.971a8 8 0 0 1 11.315 0l16.97 16.971a8 8 0 0 1 0 11.314l-22.627 22.627a7.974 7.974 0 0 1 -5.657 2.343z"/><path d="m247.029 239.029a7.979 7.979 0 0 1 -5.657-2.342l-5.656-5.657a8 8 0 1 1 11.314-11.314l5.657 5.656a8 8 0 0 1 -5.658 13.657z"/><path d="m286.627 278.627a7.974 7.974 0 0 1 -5.657-2.343l-5.657-5.656a8 8 0 0 1 11.315-11.315l5.656 5.657a8 8 0 0 1 -5.657 13.657z"/></g><path d="m201.774 487.931a7.982 7.982 0 0 1 -5.657-2.343l-169.705-169.705a8 8 0 0 1 0-11.315l294.156-294.156a8 8 0 0 1 11.315 0l169.705 169.705a8 8 0 0 1 0 11.315l-294.156 294.156a7.982 7.982 0 0 1 -5.658 2.343zm-158.391-177.705 158.391 158.391 282.843-282.843-158.391-158.391z"/><path d="m428.049 159.833a7.97 7.97 0 0 1 -5.657-2.343l-67.882-67.882a8 8 0 0 1 11.314-11.314l67.882 67.883a8 8 0 0 1 -5.657 13.656z"/><path d="m235.716 420.049a8 8 0 0 1 -5.657-13.657l192.333-192.333a8 8 0 0 1 11.314 11.314l-192.333 192.333a7.974 7.974 0 0 1 -5.657 2.343z"/><path d="m99.951 284.284a8 8 0 0 1 -5.657-13.657l192.333-192.333a8 8 0 1 1 11.314 11.314l-192.333 192.333a7.974 7.974 0 0 1 -5.657 2.343z"/><path d="m167.833 420.049a7.974 7.974 0 0 1 -5.657-2.343l-67.882-67.882a8 8 0 0 1 11.314-11.314l67.882 67.882a8 8 0 0 1 -5.657 13.657z"/><path d="m99.951 352.167a8 8 0 0 1 -5.657-13.656 40.047 40.047 0 0 0 0-56.57 8 8 0 1 1 11.314-11.314 56.064 56.064 0 0 1 0 79.2 7.973 7.973 0 0 1 -5.657 2.34z"/><path d="m167.833 420.049a8 8 0 0 1 -5.656-13.657 56.067 56.067 0 0 1 79.2 0 8 8 0 0 1 -11.314 11.314 40.047 40.047 0 0 0 -56.57 0 7.972 7.972 0 0 1 -5.66 2.343z"/><path d="m326.226 106.01a55.634 55.634 0 0 1 -39.6-16.4 8 8 0 1 1 11.314-11.314 40 40 0 0 0 56.569 0 8 8 0 1 1 11.314 11.314 55.635 55.635 0 0 1 -39.597 16.4z"/><path d="m428.049 227.716a7.974 7.974 0 0 1 -5.657-2.343 56.064 56.064 0 0 1 0-79.2 8 8 0 0 1 11.314 11.313 40.046 40.046 0 0 0 0 56.569 8 8 0 0 1 -5.657 13.657z"/></g><path d="m16 504a8 8 0 0 1 -5.657-13.657l96-96a8 8 0 0 1 11.314 11.314l-96 96a7.974 7.974 0 0 1 -5.657 2.343z"/><path d="m44 388a8 8 0 0 1 -5.657-13.657l28-28a8 8 0 0 1 11.314 11.314l-28 28a7.974 7.974 0 0 1 -5.657 2.343z"/><path d="m16 416a8 8 0 0 1 -5.657-13.657l12-12a8 8 0 1 1 11.314 11.314l-12 12a7.974 7.974 0 0 1 -5.657 2.343z"/><path d="m16 456a8 8 0 0 1 -5.657-13.657l52-52a8 8 0 0 1 11.314 11.314l-52 52a7.974 7.974 0 0 1 -5.657 2.343z"/><path d="m112 464a8 8 0 0 1 -5.657-13.657l32-32a8 8 0 1 1 11.314 11.314l-32 32a7.974 7.974 0 0 1 -5.657 2.343z"/><path d="m128 504a8 8 0 0 1 -5.657-13.657l40-40a8 8 0 1 1 11.314 11.314l-40 40a7.974 7.974 0 0 1 -5.657 2.343z"/><path d="m88 488a8 8 0 0 1 -5.657-13.657l8-8a8 8 0 0 1 11.314 11.314l-8 8a7.974 7.974 0 0 1 -5.657 2.343z"/></g></g></svg>