<svg id="Capa_1" enable-background="new 0 0 512.001 512.001" height="512" viewBox="0 0 512.001 512.001" width="512" xmlns="http://www.w3.org/2000/svg"><g><path d="m122.843 30.057h302v437h-302z" fill="#3b88f5" transform="matrix(.087 -.996 .996 .087 2.364 499.695)"/><path d="m369.672 153.41h75v272h-75z" fill="#ffbc2b"/><path d="m444.672 425.41v7.5h-30l-30-22.65 30-22.65 18.24 13.98c7.14 5.48 11.76 14.11 11.76 23.82z" fill="#ffcf66"/><path d="m414.672 153.41-407.343.343v272h407.343z" fill="#ffcf66"/><path d="m414.672 387.61v45.3h-407v-7.5c0-9.71 4.62-18.34 11.78-23.82-.02 0 146.31-112.17 146.31-112.17h120.82z" fill="#ffe09e"/><path d="m444.672 145.91v7.5c0 9.71-4.62 18.34-11.78 23.83.02 0-18.22 13.98-18.22 13.98l-30-22.655 30-22.655z" fill="#ffe09e"/><path d="m286.582 289.42-42.17 32.32c-5.07 3.87-11.38 6.17-18.24 6.17s-13.17-2.3-18.22-6.17c-.02 0-42.19-32.32-42.19-32.32l-146.33-112.18c-7.14-5.49-11.76-14.12-11.76-23.83v-7.5h407v45.31z" fill="#fec"/><path d="m505.154 109.704-435.337-38.087c-1.983-.172-3.951.447-5.475 1.726s-2.478 3.11-2.651 5.092l-5.247 59.977h-48.944c-4.142 0-7.5 3.358-7.5 7.5v287c0 4.142 3.358 7.5 7.5 7.5h437c4.142 0 7.5-3.358 7.5-7.5v-9.647l25.525 2.233c.223.019.443.029.663.029 3.846 0 7.121-2.943 7.463-6.847l26.321-300.851c.361-4.126-2.692-7.764-6.818-8.125zm-490.154 43.708h422c0 7.053-3.218 13.568-8.828 17.872-1.866 1.431-186.357 142.857-188.473 144.47-3.989 3.057-8.714 4.658-13.7 4.658-4.984 0-9.714-1.603-13.672-4.628-1.867-1.433-186.638-143.074-188.456-144.475-5.65-4.329-8.871-10.843-8.871-17.897zm422 242.053c-.473-.405-138.274-106.055-138.274-106.055l138.274-105.993zm-422 29.947c0-7.053 3.219-13.567 8.828-17.872l61.262-46.962c3.287-2.52 3.909-7.228 1.389-10.515s-7.228-3.91-10.515-1.389l-60.964 46.734v-212.067c.604.523 138.272 106.071 138.272 106.071l-53.499 41.011c-3.287 2.52-3.909 7.228-1.389 10.515 1.477 1.926 3.705 2.938 5.958 2.938 1.592 0 3.197-.505 4.558-1.548l56.7-43.465 37.61 28.832c6.604 5.049 14.485 7.718 22.791 7.718 8.313 0 16.192-2.67 22.786-7.723.585-.448 37.612-28.83 37.612-28.83 24.515 18.792 139.812 107.178 141.718 108.646.016.012.031.024.047.036 5.616 4.302 8.836 10.816 8.836 17.87zm456.361-15.511-19.361-1.694v-262.295c0-4.142-3.358-7.5-7.5-7.5h-372.998l4.479-51.198 420.394 36.78z"/></g></svg>