<svg id="Capa_1" enable-background="new 0 0 512 512" height="512" viewBox="0 0 512 512" width="512" xmlns="http://www.w3.org/2000/svg"><g><g><g><g><path d="m484.5 504.5h-457c-11.046 0-20-8.954-20-20v-457c0-11.046 8.954-20 20-20h457c11.046 0 20 8.954 20 20v457c0 11.046-8.954 20-20 20z" fill="#ff5677"/><path d="m504.5 27.5v457c0 11.05-8.95 20-20 20h-135.15c138.46-91.47 115.2-389.51 101.8-497h33.35c11.05 0 20 8.95 20 20z" fill="#ff2953"/></g></g><g><g><g><path d="m415.49 212.67c-14.28-34.91-39.72-64.12-71.85-83.19-13.09-7.76-29.66 1.85-29.66 17.08v.01c0 7 3.73 13.44 9.75 17.02 38.44 22.89 64.41 64.66 65.01 112.42.03 1.2.03 2.41.01 3.62-1.01 71.86-59.75 130.26-131.62 130.86-15.3.13-30.01-2.34-43.72-7.01-52.38-17.77-90.17-67.43-90.17-125.74 0-48.57 26.21-91.13 65.23-114.27 5.96-3.53 9.55-9.99 9.55-16.9 0-11.54-9.48-19.81-19.78-19.81-3.33 0-6.75.86-9.96 2.77-50.8 30.18-84.84 85.73-84.54 149.05.25 52.07 23.86 98.83 60.84 130.31 29.97 25.52 68.72 40.99 110.93 41.11 95.21.27 172.75-77.11 172.75-172.26 0-23.01-4.54-44.99-12.77-65.07z" fill="#e8e6ed"/></g><path d="m428.26 277.74c0 95.15-77.54 172.53-172.75 172.26-42.21-.12-80.96-15.59-110.93-41.11 25.08.47 47.96-1.49 68.83-5.41 13.71 4.67 28.42 7.14 43.72 7.01 71.87-.6 130.61-59 131.62-130.86.02-1.21.02-2.42-.01-3.62 12.32-22.21 20.86-44.21 26.75-63.34 8.23 20.08 12.77 42.06 12.77 65.07z" fill="#d1d0d8"/><path d="m276.84 142.06v48.42c0 5.76-2.33 10.96-6.1 14.74-3.78 3.77-8.98 6.1-14.74 6.1-11.51 0-20.84-9.33-20.84-20.84v-12.76l.01-94.89c0-11.5 9.32-20.83 20.83-20.83s20.83 9.33 20.83 20.83z" fill="#e8e6ed"/><path d="m276.84 142.06v48.42c0 5.76-2.33 10.96-6.1 14.74-3.78 3.77-8.98 6.1-14.74 6.1-11.51 0-20.84-9.33-20.84-20.84v-12.76c19.98-8.47 33.09-21.97 41.68-35.66z" fill="#d1d0d8"/></g></g></g><g><g><g><path d="m484.5 512h-457c-15.164 0-27.5-12.337-27.5-27.5v-67.195c0-4.143 3.357-7.5 7.5-7.5s7.5 3.357 7.5 7.5v67.195c0 6.893 5.607 12.5 12.5 12.5h457c6.893 0 12.5-5.607 12.5-12.5v-49.196c0-4.143 3.357-7.5 7.5-7.5s7.5 3.357 7.5 7.5v49.196c0 15.163-12.336 27.5-27.5 27.5z"/><path d="m7.5 390.282c-4.143 0-7.5-3.357-7.5-7.5v-355.282c0-15.164 12.337-27.5 27.5-27.5h140.279c4.143 0 7.5 3.357 7.5 7.5s-3.357 7.5-7.5 7.5h-140.279c-6.893 0-12.5 5.607-12.5 12.5v355.282c0 4.143-3.357 7.5-7.5 7.5z"/><path d="m504.5 408.281c-4.143 0-7.5-3.357-7.5-7.5v-373.281c0-6.893-5.607-12.5-12.5-12.5h-282.197c-4.143 0-7.5-3.357-7.5-7.5s3.357-7.5 7.5-7.5h282.197c15.163 0 27.5 12.336 27.5 27.5v373.281c0 4.143-3.357 7.5-7.5 7.5z"/></g></g><g><g><g><path d="m256.005 457.5c-.173 0-.343-.001-.517-.001-98.366-.275-178.776-80.523-179.247-178.886-.152-31.884 8.187-63.264 24.115-90.747 15.444-26.647 37.605-49.048 64.09-64.78 8.483-5.039 18.682-5.127 27.278-.235 8.641 4.917 13.8 13.782 13.8 23.714 0 9.569-5.067 18.52-13.224 23.357-18.4 10.912-33.821 26.448-44.597 44.928-11.098 19.031-16.963 40.778-16.963 62.889 0 33.601 13.179 65.174 37.107 88.902 23.667 23.47 54.935 36.356 88.143 36.357.36 0 .717-.002 1.078-.005 32.786-.274 63.738-13.246 87.154-36.526 23.416-23.281 36.564-54.157 37.024-86.939.625-44.628-22.886-86.583-61.357-109.493-8.274-4.926-13.414-13.918-13.414-23.467v-.01c0-9.937 5.164-18.809 13.813-23.734 8.567-4.879 18.728-4.803 27.176.21 26.385 15.653 48.497 37.935 63.947 64.435 15.929 27.323 24.349 58.538 24.349 90.271 0 48.038-18.782 93.224-52.888 127.233-33.977 33.883-79.018 52.526-126.867 52.527zm-77.73-323.231c-2.126 0-4.246.572-6.169 1.714-24.286 14.427-44.609 34.969-58.771 59.405-14.594 25.18-22.233 53.934-22.094 83.153.432 90.154 74.131 163.706 164.289 163.958.156 0 .317.001.474.001 43.854 0 85.129-17.088 116.278-48.15 31.263-31.175 48.479-72.588 48.479-116.611 0-29.081-7.714-57.684-22.308-82.716-14.168-24.302-34.445-44.734-58.642-59.089-3.749-2.225-8.274-2.254-12.1-.076-3.905 2.224-6.236 6.224-6.236 10.7v.01c0 4.289 2.333 8.343 6.088 10.578 43.065 25.646 69.382 72.62 68.682 122.593-.515 36.726-15.233 71.304-41.447 97.365-26.211 26.061-60.875 40.582-97.604 40.89-.401.003-.805.005-1.207.005-37.192 0-72.201-14.428-98.701-40.706-26.79-26.567-41.545-61.923-41.545-99.554 0-24.763 6.572-49.122 19.005-70.445 12.058-20.678 29.313-38.062 49.902-50.273 3.624-2.149 5.876-6.155 5.876-10.455 0-4.47-2.325-8.461-6.219-10.678-1.896-1.08-3.965-1.619-6.03-1.619z"/></g><path d="m256.003 218.815c-15.628 0-28.338-12.711-28.338-28.334l.002-107.649c.001-15.623 12.712-28.332 28.334-28.332 15.623 0 28.333 12.71 28.333 28.332l.002 107.649c0 15.623-12.71 28.334-28.333 28.334zm-.002-149.315c-7.352 0-13.333 5.981-13.334 13.333l-.002 107.648c0 7.353 5.981 13.334 13.333 13.334 7.356 0 13.338-5.981 13.338-13.334l-.002-107.649c0-7.352-5.981-13.332-13.333-13.332z"/></g></g></g></g></svg>