<svg id="Capa_1" enable-background="new 0 0 512 512" height="512" viewBox="0 0 512 512" width="512" xmlns="http://www.w3.org/2000/svg"><g><g><g><path d="m494.5 256c0 137.243-101.257 247.5-238.5 247.5-5.037 0-10.039.85-15.001.555-130.258-7.756-233.499-115.849-233.499-248.055s103.241-240.299 233.499-248.055c4.962-.295 9.964.555 15.001.555 137.243 0 238.5 110.257 238.5 247.5z" fill="#edf4ff"/><path d="m256 7.5c-5.038 0-10.036.168-15 .464 130.256 7.757 233.5 115.831 233.5 248.036s-103.244 240.279-233.5 248.036c4.964.296 9.962.464 15 .464 137.243 0 248.5-111.257 248.5-248.5s-111.257-248.5-248.5-248.5z" fill="#dbeaff"/><path d="m212.621 159.64c0 28.129-12.803 49.931-40.931 49.931-3.423 0-6.767.662-10.001.018-23.34-4.647-40.93-25.244-40.93-49.95 0-24.613 17.458-45.147 40.667-49.897 3.316-.678 6.748-.035 10.264-.035 28.128.002 40.931 21.805 40.931 49.933z" fill="#dbeaff"/><path d="m171.689 108.709c-3.423 0-6.766.343-10 .988 23.339 4.647 40.931 25.239 40.931 49.944s-17.592 45.296-40.931 49.944c3.234.644 6.577.988 10 .988 28.129 0 50.931-22.803 50.931-50.931 0-28.13-22.802-50.933-50.931-50.933z" fill="#c3ddff"/><path d="m402.896 293.59c0 17.126-3.884 30.01-21.01 30.01-3.5 0-6.865.42-10.003-.649-12.218-4.161-21.007-15.735-21.007-29.361s8.789-25.2 21.007-29.361c3.138-1.069 6.503-.649 10.003-.649 17.127 0 21.01 12.884 21.01 30.01z" fill="#dbeaff"/><path d="m381.886 262.58c-3.5 0-6.861.589-10 1.658 12.218 4.162 21.01 15.726 21.01 29.352s-8.792 25.191-21.01 29.352c3.139 1.069 6.5 1.658 10 1.658 17.126 0 31.01-13.884 31.01-31.01s-13.883-31.01-31.01-31.01z" fill="#c3ddff"/><path d="m210.345 383.967c0 12.338-9.002 21.34-21.34 21.34-2.261 0-4.444.664-6.501.039-9.167-2.784-15.839-11.302-15.839-21.379 0-10.025 6.603-18.507 15.697-21.335 2.098-.653 4.33-.004 6.643-.004 12.338-.001 21.34 9.001 21.34 21.339z" fill="#dbeaff"/><path d="m189.005 361.627c-2.261 0-4.443.339-6.5.964 9.167 2.784 15.84 11.299 15.84 21.376s-6.673 18.592-15.84 21.376c2.057.625 4.239.964 6.5.964 12.338 0 22.34-10.002 22.34-22.34s-10.002-22.34-22.34-22.34z" fill="#c3ddff"/></g></g><g><g><path d="m352.047 140.136c-4.142 0-7.5-3.358-7.5-7.5 0-4.142 3.358-7.5 7.5-7.5 4.142 0 7.5 3.358 7.5 7.5 0 4.142-3.358 7.5-7.5 7.5z"/></g><g><path d="m333.688 406.307c-4.142 0-7.5-3.358-7.5-7.5 0-4.142 3.358-7.5 7.5-7.5 4.142 0 7.5 3.358 7.5 7.5 0 4.142-3.357 7.5-7.5 7.5z"/></g><g><path d="m275.016 294.76c-4.142 0-7.5-3.358-7.5-7.5 0-4.142 3.358-7.5 7.5-7.5 4.142 0 7.5 3.358 7.5 7.5 0 4.142-3.358 7.5-7.5 7.5z"/></g><g><path d="m93.344 302.26c-4.142 0-7.5-3.358-7.5-7.5 0-4.142 3.358-7.5 7.5-7.5 4.142 0 7.5 3.358 7.5 7.5 0 4.142-3.358 7.5-7.5 7.5z"/></g><g><path d="m381.887 332.1c-21.235 0-38.51-17.275-38.51-38.51 0-21.234 17.275-38.51 38.51-38.51 21.234 0 38.51 17.275 38.51 38.51-.001 21.235-17.276 38.51-38.51 38.51zm0-62.02c-12.963 0-23.51 10.546-23.51 23.51 0 12.963 10.547 23.51 23.51 23.51s23.51-10.547 23.51-23.51c-.001-12.963-10.547-23.51-23.51-23.51z"/></g><g><path d="m189.005 413.807c-16.454 0-29.839-13.386-29.839-29.84s13.386-29.839 29.839-29.839 29.84 13.386 29.84 29.839-13.386 29.84-29.84 29.84zm0-44.68c-8.183 0-14.839 6.657-14.839 14.839 0 8.183 6.657 14.84 14.839 14.84 8.183 0 14.84-6.657 14.84-14.84 0-8.182-6.657-14.839-14.84-14.839z"/></g><g><path d="m65.49 423.061c-2.142 0-4.267-.912-5.751-2.682-38.524-45.947-59.739-104.325-59.739-164.379 0-68.38 26.629-132.667 74.98-181.019 48.352-48.353 112.64-74.981 181.02-74.981 59.33 0 117.162 20.762 162.843 58.46 3.195 2.637 3.647 7.364 1.011 10.559-2.637 3.195-7.364 3.647-10.559 1.011-43-35.487-97.441-55.03-153.295-55.03-64.374 0-124.894 25.068-170.413 70.587s-70.587 106.04-70.587 170.413c0 56.536 19.971 111.491 56.233 154.742 2.662 3.174 2.246 7.904-.929 10.565-1.405 1.179-3.114 1.754-4.814 1.754z"/></g><g><path d="m256 512c-64.106 0-125.445-23.809-172.717-67.041-3.057-2.795-3.269-7.54-.473-10.596 2.796-3.058 7.54-3.268 10.596-.473 44.5 40.697 102.244 63.11 162.594 63.11 64.373 0 124.894-25.068 170.413-70.587s70.587-106.039 70.587-170.413c0-61.11-22.909-119.392-64.506-164.108-2.821-3.033-2.65-7.778.383-10.6 3.034-2.821 7.779-2.649 10.6.383 44.188 47.502 68.523 109.411 68.523 174.325 0 68.38-26.628 132.668-74.981 181.02-48.352 48.351-112.639 74.98-181.019 74.98z"/></g><g><path d="m171.689 218.071c-25.201 0-47.483-16.053-55.445-39.947-1.31-3.93.814-8.177 4.744-9.486 3.928-1.311 8.177.814 9.486 4.744 5.918 17.758 22.481 29.689 41.215 29.689 23.948 0 43.431-19.483 43.431-43.431s-19.483-43.431-43.431-43.431c-18.536 0-35.043 11.766-41.075 29.278-1.35 3.917-5.618 5.996-9.534 4.648-3.916-1.349-5.997-5.618-4.648-9.534 8.116-23.562 30.323-39.393 55.257-39.393 32.219 0 58.431 26.212 58.431 58.431.001 32.22-26.211 58.432-58.431 58.432z"/></g></g></g></svg>