<svg xmlns="http://www.w3.org/2000/svg" xmlns:xlink="http://www.w3.org/1999/xlink" viewBox="0 0 127.16 197.35"><defs><style>.cls-1{fill:url(#linear-gradient);}.cls-2{fill:url(#linear-gradient-2);}.cls-3{fill:url(#linear-gradient-3);}.cls-4{fill:url(#linear-gradient-4);}.cls-5{fill:url(#linear-gradient-5);}.cls-6{fill:url(#linear-gradient-6);}.cls-7{fill:url(#linear-gradient-7);}.cls-8{fill:url(#linear-gradient-8);}.cls-9{fill:url(#linear-gradient-9);}.cls-10{fill:url(#linear-gradient-10);}.cls-11{fill:url(#linear-gradient-11);}.cls-12{fill:url(#linear-gradient-12);}.cls-13{font-size:25.53px;font-family:AmostelySignatureRegular, Amostely Signature;}.cls-13,.cls-15{fill:#fff;}.cls-14{font-size:42.54px;}.cls-15{font-size:12px;font-family:Goldoni;letter-spacing:-0.02em;}.cls-16{letter-spacing:-0.13em;}.cls-17{letter-spacing:-0.05em;}.cls-18{letter-spacing:-0.03em;}.cls-19{letter-spacing:-0.05em;}.cls-20{letter-spacing:-0.02em;}.cls-21{letter-spacing:-0.03em;}</style><linearGradient id="linear-gradient" x1="99.77" y1="22.17" x2="99.77" y2="110.86" gradientUnits="userSpaceOnUse"><stop offset="0.14" stop-color="#b61cff"/><stop offset="0.27" stop-color="#b21bf9"/><stop offset="0.44" stop-color="#a617e9"/><stop offset="0.62" stop-color="#9211cf"/><stop offset="0.82" stop-color="#7709ab"/><stop offset="1" stop-color="#580082"/></linearGradient><linearGradient id="linear-gradient-2" x1="125.59" y1="109.23" x2="78.66" y2="29.99" xlink:href="#linear-gradient"/><linearGradient id="linear-gradient-3" x1="-77.58" y1="476.38" x2="-77.58" y2="565.07" gradientTransform="translate(-325.87 -294.79) rotate(-60)" gradientUnits="userSpaceOnUse"><stop offset="0.14" stop-color="#ff471c"/><stop offset="0.27" stop-color="#f9451b"/><stop offset="0.44" stop-color="#e93f17"/><stop offset="0.62" stop-color="#cf3511"/><stop offset="0.82" stop-color="#ab2709"/><stop offset="1" stop-color="#821800"/></linearGradient><linearGradient id="linear-gradient-4" x1="-51.76" y1="563.44" x2="-98.68" y2="484.2" xlink:href="#linear-gradient-3"/><linearGradient id="linear-gradient-5" x1="-559.84" y1="547.7" x2="-559.84" y2="636.39" gradientTransform="translate(-744.18 -160.26) rotate(-120)" gradientUnits="userSpaceOnUse"><stop offset="0.14" stop-color="#ffa11c"/><stop offset="0.27" stop-color="#f99d1b"/><stop offset="0.44" stop-color="#e99217"/><stop offset="0.62" stop-color="#cf8011"/><stop offset="0.82" stop-color="#ab6809"/><stop offset="1" stop-color="#824c00"/></linearGradient><linearGradient id="linear-gradient-6" x1="-534.02" y1="634.76" x2="-580.95" y2="555.51" xlink:href="#linear-gradient-5"/><linearGradient id="linear-gradient-7" x1="-864.01" y1="166.57" x2="-864.01" y2="255.26" gradientTransform="translate(-836.62 269.06) rotate(180)" gradientUnits="userSpaceOnUse"><stop offset="0.14" stop-color="#91ff1c"/><stop offset="0.27" stop-color="#8ef91b"/><stop offset="0.44" stop-color="#84e917"/><stop offset="0.62" stop-color="#73cf11"/><stop offset="0.82" stop-color="#5cab09"/><stop offset="1" stop-color="#438200"/></linearGradient><linearGradient id="linear-gradient-8" x1="-838.2" y1="253.63" x2="-885.12" y2="174.39" xlink:href="#linear-gradient-7"/><linearGradient id="linear-gradient-9" x1="-684.55" y1="-286.09" x2="-684.55" y2="-197.4" gradientTransform="translate(-510.76 563.84) rotate(120)" gradientUnits="userSpaceOnUse"><stop offset="0.14" stop-color="#1cffd0"/><stop offset="0.27" stop-color="#1bf9cb"/><stop offset="0.44" stop-color="#17e9be"/><stop offset="0.62" stop-color="#11cfa8"/><stop offset="0.82" stop-color="#09ab89"/><stop offset="1" stop-color="#008267"/></linearGradient><linearGradient id="linear-gradient-10" x1="-658.73" y1="-199.03" x2="-705.65" y2="-278.28" xlink:href="#linear-gradient-9"/><linearGradient id="linear-gradient-11" x1="-202.98" y1="-359.17" x2="-202.98" y2="-270.48" gradientTransform="translate(-92.45 429.31) rotate(60)" gradientUnits="userSpaceOnUse"><stop offset="0.14" stop-color="#ff1cad"/><stop offset="0.29" stop-color="#f91aa9"/><stop offset="0.47" stop-color="#e9169d"/><stop offset="0.68" stop-color="#cf0f8a"/><stop offset="0.91" stop-color="#ab056f"/><stop offset="1" stop-color="#990062"/></linearGradient><linearGradient id="linear-gradient-12" x1="-177.16" y1="-272.12" x2="-224.09" y2="-351.36" xlink:href="#linear-gradient-11"/></defs><g id="Layer_2" data-name="Layer 2"><g id="Layer_3" data-name="Layer 3"><path class="cls-1" d="M125.52,77.16a21.87,21.87,0,0,1-12.76,15.09,22.46,22.46,0,0,1-20.29-1.18L72.38,79.47l53-30.62A60.08,60.08,0,0,1,125.52,77.16Z"/><path class="cls-2" d="M125.42,48.85c-2.1,28.47-27.84,39.05-53,30.62"/><path class="cls-3" d="M108.39,15.78a21.87,21.87,0,0,1,6.69,18.6,22.48,22.48,0,0,1-11.17,17L83.82,63V1.71A60.13,60.13,0,0,1,108.39,15.78Z"/><path class="cls-4" d="M83.82,1.71c23.61,16.06,19.9,43.64,0,61.25"/><path class="cls-5" d="M44.8.92A21.86,21.86,0,0,1,64.25,4.43a22.44,22.44,0,0,1,9.12,18.15V45.79l-53-30.63A60,60,0,0,1,44.8.92Z"/><path class="cls-6" d="M20.33,15.16C46,2.75,68.07,19.75,73.37,45.79"/><path class="cls-7" d="M1.64,47.49A21.86,21.86,0,0,1,14.41,32.4a22.5,22.5,0,0,1,20.28,1.18L54.78,45.19l-53,30.62A60.12,60.12,0,0,1,1.64,47.49Z"/><path class="cls-8" d="M1.74,75.81c2.1-28.48,27.84-39.05,53-30.62"/><path class="cls-9" d="M18.77,108.87a21.83,21.83,0,0,1-6.68-18.59,22.45,22.45,0,0,1,11.16-17L43.34,61.7V123A60,60,0,0,1,18.77,108.87Z"/><path class="cls-10" d="M43.35,123c-23.62-16.06-19.91-43.64,0-61.25"/><path class="cls-11" d="M82.36,123.74a21.86,21.86,0,0,1-19.45-3.51,22.44,22.44,0,0,1-9.12-18.15V78.87l53,30.62A60,60,0,0,1,82.36,123.74Z"/><path class="cls-12" d="M106.83,109.49c-25.71,12.42-47.74-4.58-53-30.62"/><text class="cls-13" transform="translate(8.23 158.51) scale(1.18 1)">S<tspan class="cls-14" x="26.21" y="0">carlette</tspan></text><text class="cls-15" transform="translate(0.8 195) scale(1.18 1)">DIGI<tspan class="cls-16" x="19.76" y="0">T</tspan><tspan class="cls-17" x="25.77" y="0">A</tspan><tspan x="32.93" y="0">L M</tspan><tspan class="cls-18" x="49.12" y="0">E</tspan><tspan x="55.44" y="0">D</tspan><tspan class="cls-19" x="62.2" y="0">I</tspan><tspan class="cls-20" x="65.17" y="0">A G</tspan><tspan class="cls-18" x="80.79" y="0">R</tspan><tspan x="87.67" y="0">O</tspan><tspan class="cls-17" x="93.88" y="0">U</tspan><tspan class="cls-21" x="100.52" y="0">P</tspan></text></g></g></svg>